<?xml version="1.0" encoding="UTF-8" standalone="no"?>
<!-- Created with Inkscape (http://www.inkscape.org/) -->

<svg
   width="26mm"
   height="26mm"
   viewBox="0 0 26 26"
   version="1.1"
   id="svg827"
   inkscape:version="1.1 (c4e8f9ed74, 2021-05-24)"
   sodipodi:docname="emblem.svg"
   xmlns:inkscape="http://www.inkscape.org/namespaces/inkscape"
   xmlns:sodipodi="http://sodipodi.sourceforge.net/DTD/sodipodi-0.dtd"
   xmlns="http://www.w3.org/2000/svg"
   xmlns:svg="http://www.w3.org/2000/svg"
   xmlns:rdf="http://www.w3.org/1999/02/22-rdf-syntax-ns#"
   xmlns:cc="http://creativecommons.org/ns#">
  <sodipodi:namedview
     id="namedview829"
     pagecolor="#ffffff"
     bordercolor="#666666"
     borderopacity="1.0"
     inkscape:pageshadow="2"
     inkscape:pageopacity="0.77254902"
     inkscape:pagecheckerboard="true"
     inkscape:document-units="mm"
     showgrid="false"
     height="36mm"
     inkscape:zoom="2.1997092"
     inkscape:cx="121.15238"
     inkscape:cy="110.69645"
     inkscape:window-width="2560"
     inkscape:window-height="1410"
     inkscape:window-x="0"
     inkscape:window-y="30"
     inkscape:window-maximized="1"
     inkscape:current-layer="layer1" />
  <defs
     id="defs824" />
  <g
     inkscape:label="Layer 1"
     inkscape:groupmode="layer"
     id="layer1">
    <circle
       id="path1661"
       style="fill:#e1b11e;stroke:#000000;stroke-width:0.264583"
       cx="18.923969"
       cy="23.814434"
       r="0.018409407" />
    <circle
       id="path1663"
       style="fill:#e1b11e;stroke:#000000;stroke-width:0.264583"
       cx="18.923969"
       cy="23.814434"
       r="0.018409407" />
    <path
       id="path1665"
       style="fill:#e1b11e;fill-opacity:1;stroke-width:3.77953"
       transform="scale(0.26458333)"
       d="M 12.578125,4.1953125 C 11.516353,4.2019267 10.464223,4.4109424 9.546875,4.9960938 9.35839,5.1163242 9.2059652,5.2834891 9.0351562,5.4277344 8.0752652,5.6741936 11.561593,19.250365 12.521484,19.003906 c 1.572753,1.009693 3.356296,1.378361 5.208985,1.177735 0.326774,-0.03538 0.646716,-0.110653 0.970703,-0.166016 0.44574,-0.118953 0.871308,-0.256615 1.224609,-0.515625 0.290139,0.05885 0.578234,0.129454 0.865235,0.203125 0.178216,0.02831 0.35476,0.08845 0.535156,0.08398 0.145035,-0.0036 0.233253,-0.183829 0.373047,-0.222656 0.405773,-0.112705 0.974008,0.03564 1.353515,0.117188 -0.03296,-0.02305 -0.09735,-0.03012 -0.09766,-0.07031 -2.56e-4,-0.03284 0.06495,-0.01096 0.09766,-0.0078 0.08192,0.0077 0.163301,0.0257 0.244141,0.04102 0.394378,0.07476 0.785675,0.157621 1.181641,0.22461 h 0.002 c -0.0038,0.0057 0.04203,0.0253 0.0625,0.0332 0.104307,0.04021 0.207937,0.08231 0.316406,0.109375 0.2832,0.07068 0.575826,0.09971 0.863281,0.15039 0.169391,0.0257 0.336583,0.07231 0.507813,0.07813 0.02139,7.26e-4 0.01692,-0.03893 0.02539,-0.05859 0.06951,-7e-6 0.139721,-0.0059 0.208985,0 0.11873,0.01001 0.2348,0.03674 0.353515,0.04687 0.130719,0.01119 0.264443,-0.01257 0.392579,0.01563 0.205593,0.04519 0.400104,0.134037 0.599609,0.201171 2.124357,1.218251 0.318999,0.320305 5.460937,0.820313 0.358103,0.03481 0.708759,0.1504 1.06836,0.162109 0.485311,0.0158 1.217759,-0.121104 1.675781,-0.322265 0.183266,-0.08049 0.337149,-0.216506 0.505859,-0.324219 0.113844,-0.08417 0.232807,-0.161592 0.341797,-0.251953 0.05857,-0.04856 0.114113,-0.10086 0.164063,-0.158203 0.06861,-0.0047 0.136476,-0.0073 0.205078,-0.01172 0.02249,0.022 0.04417,0.04589 0.07031,0.0625 0.497073,0.315817 1.067632,0.467102 1.628907,0.613281 0.257234,0.03541 0.511834,0.106443 0.771484,0.107422 1.519937,0.0057 3.041438,-0.03749 4.560547,-0.08789 0.773938,-0.02566 1.523078,-0.300098 2.287109,-0.398438 0.212674,-0.02736 0.428517,-0.02634 0.642578,-0.03906 0.171515,-0.01984 0.341364,-0.03319 0.511719,-0.04688 0.253833,-7.26e-4 0.508283,-0.0023 0.761719,0.002 0.192453,0.0033 0.383907,0.01861 0.576172,0.02734 1.40321,5.65e-4 2.80577,0.0014 4.208984,0.002 0.463725,-0.0223 0.564041,0.0097 0.988281,-0.138671 0.114633,-0.0401 0.211754,-0.123478 0.328125,-0.158203 0.261657,-0.07807 0.572668,-0.0343 0.851563,-0.01563 0.305423,0.184468 0.605812,0.388669 0.947266,0.498047 0.677588,0.217051 0.891781,0.153073 1.58789,0.136719 0.675765,-0.178904 1.39655,-0.190323 2.074219,-0.0059 0.131263,0.03579 0.288413,0.214653 0.386719,0.27539 0.100119,0.06187 0.210504,0.102899 0.316406,0.154297 0.522542,0.182676 0.856031,0.318376 1.429687,0.41211 0.23709,0.03874 0.480788,0.01403 0.71875,0.04687 0.315969,0.04365 0.623543,0.139445 0.939453,0.183593 0.346054,0.04836 1.712506,0.130182 2.019532,0.150391 5.463167,-0.378874 3.717721,0.319853 6.447265,-1.111328 -2.4792,-0.01833 -3.208674,-0.03602 0.462891,-0.253906 l 0.002,-0.002 c 0.07956,-0.04495 0.16074,-0.08408 0.248047,-0.109376 0.225184,-0.06524 0.248936,-0.008 0.220703,0.08203 0.512311,-0.02982 0.721629,-0.04444 1.392578,-0.08203 0.06622,-0.0037 0.121321,0.07214 0.1875,0.06836 0.587532,-0.03356 0.604266,-0.2613 1.039063,0.0625 0.804975,-0.008 0.146193,0.0209 0.818359,-0.05859 0.0661,-0.0078 0.137613,0.01338 0.199219,-0.01172 0.126123,-0.05139 0.248548,-0.111263 0.367187,-0.177734 0.10783,0.0029 0.44277,-6.77e-4 1.048829,-0.01172 0.455904,0.606386 2.416017,0.191187 0.173828,-0.0039 0.270349,-0.0052 0.694585,-0.01572 1.105468,-0.02539 -0.0087,0.03568 -0.01632,0.07095 -0.01367,0.107422 0.03288,0.479097 0.121477,0.642425 0.277344,1.054688 0.05303,0.0749 0.08249,0.175838 0.160156,0.224609 0.01928,0.01198 0.03212,-0.01425 0.04297,-0.04297 -0.0098,0.144692 -0.01739,0.267066 -0.03516,0.4375 -0.02343,0.226814 -0.08034,0.449145 -0.105469,0.675782 -0.02457,0.222054 -0.0223,0.586656 -0.02344,0.822265 0.05824,0.276938 0.03063,0.255874 0.154297,0.478516 0.02268,0.04068 0.07264,0.06813 0.08398,0.113281 0.01512,0.06044 0.01096,0.124496 0.02344,0.185547 0.117806,0.418052 0.119519,0.854398 0.125,1.285156 -7.94e-4,0.07093 0.0075,0.142599 -0.002,0.212891 -0.0223,0.163298 -0.08082,0.202576 -0.125,0.363281 -0.06512,0.236942 -0.08506,0.486622 -0.08789,0.730469 -0.06301,0.44518 0.0911,0.863451 0.203125,1.285156 0.0076,0.04215 0.04619,0.228891 0.03516,0.275391 -0.0325,0.135643 -0.260822,0.466064 -0.314453,0.517578 -0.07287,0.07002 -0.2064,0.06266 -0.265625,0.144531 -0.09566,0.132276 -0.113153,0.305914 -0.169922,0.458985 -0.07929,0.497486 0.0057,0.962352 0.185547,1.425781 0.05375,0.138553 0.272952,0.571912 0.302734,0.71875 0.03326,0.164534 0.02224,0.336367 0.0332,0.503906 -0.145625,0.747048 -0.182086,0.859281 -0.273437,1.208984 0.08939,0.221258 0.05058,0.473967 0.03516,0.707032 0.09528,0.278487 0.109097,0.589835 0.105469,0.882812 -0.0034,0.260349 -0.03881,0.143433 0.01172,0.28125 0.09075,0.261827 0.04939,0.530805 0.04297,0.800781 0.04906,0.148955 0.07771,0.278903 0.08984,0.410157 0.09649,0.08475 0.213824,0.150561 0.28711,0.255859 0.254058,0.36517 0.160524,1.066493 0.173828,1.490234 0.0223,0.0692 0.03364,0.143901 0.06641,0.208985 0.02305,0.04637 0.08159,0.07173 0.09766,0.121093 0.122079,0.375194 0.171316,0.770919 0.279297,1.150391 0.02003,0.07037 0.0196,0.06807 0.0332,0.115235 -0.0098,-0.01474 -0.02042,-0.02653 -0.03516,-0.03711 -0.103635,-0.07404 -0.240883,0.147404 -0.269531,0.271484 -0.05726,0.247938 -0.0832,0.503579 -0.09375,0.757813 -0.01625,0.394144 0.05785,0.759613 0.117187,1.144531 0.06625,0.279988 0.110443,0.636783 0.361328,0.828125 0.09555,0.07287 0.05522,-0.03377 0.115235,-0.0039 0.114897,1.147 0.0591,1.051971 0.339843,2.138672 0.04418,0.171023 0.254696,0.655533 0.164063,0.503906 -0.156813,-0.262412 -0.303571,-0.990105 -0.574219,-1.017578 -0.102803,-0.01058 -0.15629,0.133481 -0.234375,0.201172 -0.17605,0.428776 -0.167393,0.860594 -0.0059,1.292969 0.0398,0.106242 0.127022,0.191704 0.158203,0.300781 0.07427,0.260031 0.09495,0.533464 0.15625,0.796875 0.05219,0.224315 0.117892,0.444104 0.179687,0.666016 -0.107414,0.0045 -0.199225,0.202118 -0.300781,0.279296 -0.115011,0.21207 -0.264368,0.407647 -0.345703,0.634766 -0.154998,0.43265 -0.222496,1.049539 -0.109375,1.503906 0.0325,0.130885 0.262675,0.438661 0.46875,0.361328 0.102123,-0.03836 0.168752,-0.134353 0.242187,-0.21875 -0.01776,0.03553 -0.03704,0.06987 -0.05469,0.105469 -0.216567,0.438168 -0.346282,0.91975 -0.585937,1.345703 -0.141166,0.250847 -0.364271,0.445453 -0.546876,0.667969 -0.0087,0.01625 -0.01708,0.0325 -0.02539,0.04883 -8.13e-4,-0.439963 -0.09376,-0.875373 -0.22461,-1.308594 v 0.132813 0.84375 0.425781 c 0.299604,0.57182 0.169402,1.215301 0.150391,1.837891 6.05e-4,0.391177 0.02156,0.338723 -0.105469,0.792968 -0.01965,0.07037 -0.05151,0.135699 -0.08008,0.203126 0.158022,-0.533367 -0.01739,-0.488376 -0.300781,-0.28125 0.04732,0.318348 0.122026,0.636386 0.255859,0.953124 0.08882,0.210218 0.270539,0.377915 0.332032,0.597657 0.06471,0.231193 0.08818,1.406135 0.0957,1.652343 -0.0072,0.21343 0.0091,0.42955 -0.02344,0.640626 -0.0102,0.06588 -0.07483,0.109751 -0.103515,0.169921 -0.09555,0.200504 -0.393264,0.78575 -0.0918,0.966797 0.04343,0.02608 0.09705,0.02224 0.146484,0.0332 0.0621,-0.03137 0.153144,-0.154184 0.1875,-0.09375 0.189732,0.333619 -0.739409,1.463174 -0.853515,1.695313 -0.144832,0.294652 -0.235141,0.611717 -0.353516,0.917969 -0.0531,0.318765 -0.140541,0.634456 -0.160156,0.957031 -0.01776,0.293102 0.03212,0.585736 0.04883,0.878906 0.06059,1.060898 0.198798,2.095555 0.375,3.142578 0.085,0.336076 0.149071,0.73334 0.367187,1.023438 -0.04282,0.03553 -0.07516,0.0972 -0.117187,0.134765 -0.464625,0.803422 -0.569851,1.745236 -0.199219,2.607422 0.05136,0.119509 0.1251,0.227618 0.1875,0.341797 0.07438,-0.227376 0.230726,0.710419 0.123047,0.554688 -0.06614,-0.0957 0.02721,-0.249502 -0.03516,-0.347657 -0.0291,-0.04588 -0.0826,0.07365 -0.105469,0.123047 -0.06565,0.141846 -0.09975,0.29764 -0.15625,0.44336 -0.104958,0.270614 -0.218443,0.53594 -0.328125,0.804687 -0.13372,0.248693 -0.306181,0.480612 -0.402344,0.746094 -0.289361,0.799 -0.277447,1.716594 -0.01367,2.517578 0.06807,0.206702 0.209966,0.384432 0.269532,0.59375 0.133794,0.470143 0.204442,0.955589 0.30664,1.433594 0.05919,0.292686 0.127497,0.581206 0.203125,0.867187 -0.46032,-0.01512 -0.916762,-0.01446 -1.375,0.002 -0.103823,-0.02646 -0.25648,-0.06099 -0.519531,-0.117187 -0.45114,-0.105071 -0.902059,-0.03705 -1.34375,0.07422 -0.08398,0.02116 -0.163449,0.06702 -0.25,0.07031 -1.185116,0.04513 -2.370939,0.05077 -3.556641,0.07617 -0.261845,0.132057 -0.46744,0.07722 -0.722656,-0.03125 1.050059,-0.04203 2.104342,-0.02608 3.150391,-0.126953 0.115426,-0.01096 -0.204847,-0.10869 -0.314454,-0.146484 -0.557263,-0.192189 -1.152466,-0.152877 -1.728515,-0.109376 -1.415403,0.332334 -0.232401,0.06527 -2.507813,0.132813 -0.07824,0.07242 -0.211165,0.104829 -0.390625,0.04492 -0.003,-0.001 -0.0064,-0.003 -0.0098,-0.0039 -0.01928,-0.0033 -0.02312,-0.0047 -0.02539,-0.0059 h -0.002 c -0.137083,0.07344 -0.1082,0.07227 -0.224609,0.07227 -0.131566,0 -0.262981,-3.4e-5 -0.394532,0 -0.219477,5.3e-5 -0.438726,4.76e-4 -0.658203,0 -0.185197,-4e-6 -0.371451,0.0022 -0.55664,-0.002 -0.0068,-2.27e-4 -0.02571,-0.0015 -0.06445,-0.002 -0.100421,-0.0011 -0.200661,0.0021 -0.300781,0.0098 -0.03364,0.0023 -0.06792,0.0048 -0.101562,0.0078 -0.111156,-0.0053 -0.09918,9.99e-4 -0.205078,-0.02539 -0.03061,-0.0076 -0.06194,-0.01638 -0.0918,-0.02734 -0.01096,-0.0042 -0.01953,-0.01531 -0.03125,-0.01758 -0.03984,-0.0072 -0.08103,0.0049 -0.121094,0 h -0.509766 c -0.144642,0 -0.288947,4e-6 -0.433593,0 -0.0912,-4e-6 -0.184191,-7e-6 -0.275391,0 -0.346356,-3.8e-5 -0.692708,-3.47e-4 -1.039062,0 -0.03402,9.1e-5 -0.0677,2.7e-5 -0.101563,0 -0.02079,0.0019 -0.04217,0.0017 -0.0625,0.0039 -0.0045,-9.51e-4 -0.01386,-0.0029 -0.01953,-0.0039 -0.182249,-5.18e-4 -0.364309,-0.0021 -0.546875,-0.002 -0.214337,0.0026 -0.42854,0.01232 -0.642578,-0.0059 -0.02041,-0.0017 -0.04519,0.0055 -0.0625,-0.0039 -0.0031,5.58e-4 -0.0067,0.0011 -0.0098,0.002 -0.04248,0.01172 -0.08379,0.02451 -0.126953,0.0332 -0.207458,0.04157 -0.180216,0.0332 -0.373047,0.0332 -0.186822,0 -0.373683,2.6e-5 -0.560547,0 -0.245216,-6.1e-5 -0.491112,-3.78e-4 -0.736328,0 -0.203112,1.1e-5 -0.406263,-0.0019 -0.609375,0 -0.348926,0.0042 -0.698327,0.0055 -1.046875,-0.01563 -0.08447,-0.0011 -0.146386,-0.0062 -0.228516,0.0059 -0.151672,0.02192 -0.293444,0.0979 -0.451172,0.07031 -0.150121,-0.0064 -0.299109,-0.04449 -0.443359,0.01367 -0.05964,0.01285 -0.117148,0.03139 -0.177734,0.03906 -0.130961,0.01625 -0.266683,-0.0098 -0.398438,0 -0.242419,0.0042 -0.486474,0.0084 -0.728515,-0.0098 -0.166148,-0.0098 -0.320616,0.03799 -0.486328,0.05273 -0.046,0.0042 -0.09233,0.0059 -0.138672,0.0078 -0.486649,0.215358 -0.955994,0.482909 -1.441407,0.699219 -0.01965,0.0087 -0.04067,0.01512 -0.06055,0.02344 -0.167432,0.0076 -0.335283,0.02343 -0.501953,0.04883 -0.0038,0.0027 9.67e-4,7.67e-4 -0.0039,0.0039 -0.0027,0.0018 -0.0048,0.004 -0.0078,0.0059 0.125669,-0.0012 0.251283,-0.0028 0.376953,-0.0039 -0.110438,0.04271 -0.221745,0.08582 -0.332032,0.128906 -0.05306,-0.0045 -0.107217,0.0018 -0.158203,-0.01367 -0.02041,-0.006 -0.02293,-0.01682 -0.01953,-0.0293 -0.0977,0.06172 -0.194814,0.124545 -0.292969,0.185547 -0.126349,0.04792 -0.251488,0.102699 -0.384765,0.11914 -0.08402,0.0102 -0.06881,-0.151864 -0.05078,-0.216797 -0.125139,0.02835 -0.292833,0.06708 -0.375,0.08008 -0.102084,0.04426 -0.203913,0.0883 -0.30664,0.13086 -0.185688,0.09471 -0.350894,0.265779 -0.558594,0.283203 -0.108019,0.0091 0.145752,-0.16195 0.203125,-0.253906 0.02003,-0.03213 0.03744,-0.09027 0.04492,-0.148438 -0.369524,-0.01739 -0.960743,-0.05075 -2.490234,-0.03711 -0.07034,6.27e-4 -0.140323,-0.01481 -0.207032,-0.03711 -0.08799,-0.02948 -0.164079,-0.08752 -0.251953,-0.117187 -0.02457,-0.0083 -0.0443,-0.01311 -0.06641,-0.01953 0.580244,-0.02154 1.131213,-0.04057 2.154297,-0.08789 0.113726,-0.0053 -0.219061,-0.06606 -0.332031,-0.08008 -0.118942,-0.01474 -0.24066,-0.02207 -0.359375,-0.0059 -0.01965,0.0027 0.0167,0.03516 0.02539,0.05273 -1.052405,-0.393173 -1.827575,-0.298147 -2.892578,-0.08789 -1.141553,-0.59235 -2.325981,-0.07501 -3.498047,0.07031 -0.06535,-0.02154 -0.131226,-0.04157 -0.199218,-0.04297 -1.012177,-0.02116 -2.024665,-0.01752 -3.03711,-0.01563 0.0094,-0.0019 0.0179,-0.0016 0.02734,-0.0039 0.04403,-0.01058 0.07664,-0.04846 0.115234,-0.07227 -0.02457,-0.2832 -0.03741,-0.437287 -0.08008,-0.513672 0.260825,-0.01172 0.713038,-0.01615 1.351563,-0.002 -0.107377,-0.02872 -0.215922,-0.05393 -0.320313,-0.0918 -0.177411,-0.06436 -0.310449,-0.138082 -0.449219,-0.220703 -0.242305,0.130847 -0.462446,0.211565 -0.632812,0.261719 l -0.002,-0.002 c -0.164145,-0.06266 -0.598741,0.245977 -1.898438,0.355468 0.403949,0.06293 0.805456,0.134932 1.208985,0.210938 0.130129,0.02457 0.2381,0.05809 0.345703,0.07813 -0.115162,1.74e-4 -0.230541,-7.2e-5 -0.345703,0 -0.530812,1.97e-4 0.01285,0.05958 -0.566407,-0.02734 -0.327571,-0.121965 -0.650414,-0.20676 -0.988281,-0.238281 0.119962,-0.006 0.238025,-0.01437 0.345703,-0.02344 -0.159307,-0.02494 -0.317704,-0.0528 -0.478515,-0.07227 -1.277175,0.339628 -2.835783,-0.204172 -4.236329,-0.0078 -0.259531,-0.04997 -0.533904,-0.05764 -0.78125,-0.08398 -0.849471,-0.09052 -0.336299,-0.08055 -1.164062,-0.05273 -0.172229,0.02305 -0.343831,0.07182 -0.517578,0.07031 -1.354002,-0.01172 -2.7095,-0.01927 -4.060547,-0.109375 -0.229429,-0.0155 -0.437699,-0.141834 -0.658203,-0.207031 -0.254109,-0.0751 -0.506878,-0.155744 -0.765625,-0.212891 -0.882516,-0.194797 -0.716528,-0.148758 -1.564453,-0.07227 0.484484,-0.166451 -1.363377,0.333355 -1.007813,0.394531 1.075183,0.184932 2.186548,0.08065 3.263672,0.253906 0.09499,0.01512 -0.153084,0.151858 -0.150391,0.248047 0.0027,0.09691 0.08539,0.183579 0.164063,0.240234 0.157251,0.113273 0.34915,0.169132 0.523437,0.253907 -0.519736,-0.03175 -0.956105,-0.644802 -1.476562,-0.65625 -4.861977,-0.106961 -2.395465,0.09381 -4.017578,-0.04297 -0.34972,-0.04335 -0.694753,-0.0675 -1.039063,-0.0059 -0.05886,-0.01587 -0.118335,-0.03177 -0.177734,-0.04492 -1.105011,-0.247106 -3.03676,-0.557982 -3.998047,-0.310547 0.04236,-0.127257 0.19578,-0.486953 0.132813,-0.04687 0.03643,-0.09849 0.07294,-0.196428 0.109375,-0.294922 -0.01538,0.04577 0.07993,-0.06035 0.101562,-0.103516 0.152153,-0.303874 0.275178,-0.759322 0.369141,-1.060547 0.01542,-0.07914 0.02419,-0.160385 0.04492,-0.238281 0.17814,-0.669728 0.309251,-1.089031 0.414062,-1.720703 0.0299,-0.13886 0.06786,-0.312228 0.08594,-0.414062 0.03273,-0.184517 0.03474,-0.375002 0.08789,-0.554688 0.01304,-0.04407 0.03912,0.08689 0.03711,0.132812 -0.0078,0.177563 -0.08246,0.352291 -0.06641,0.529297 0.0041,0.04471 0.07939,0.04164 0.119141,0.0625 0.67717,-0.913349 1.364038,-1.865357 1.566406,-3.011718 0.124158,-0.703321 0.0457,-1.041897 -0.02148,-1.736329 -0.128621,-0.63299 -0.08625,-1.280524 -0.15625,-1.919921 -0.002,-0.01776 -0.02773,-0.02723 -0.03125,-0.04492 -0.02056,-0.102577 -0.01377,-0.20879 -0.02734,-0.3125 0.09849,-0.632304 0.337276,-1.22907 0.335938,-1.878907 -7.56e-4,-0.367369 -0.05402,-0.499696 -0.140625,-0.841796 -0.240862,-0.547438 -0.370691,-1.206083 -0.169922,-1.78711 0.321146,-0.929404 -0.01327,0.520572 0.21289,-0.585937 0.06624,-0.423243 0.107438,-0.950184 -0.224609,-1.28711 -0.04197,-0.04259 -0.09691,-0.08251 -0.15625,-0.08984 -0.04952,-0.006 -0.09188,0.03554 -0.138672,0.05273 -0.279738,-0.08307 0.204783,-1.180094 0.263672,-1.351562 0.04647,-0.135308 0.07851,-0.27636 0.117187,-0.414063 0.02181,-0.146079 0.05739,-0.289966 0.06445,-0.4375 0.06824,-1.424871 -0.121159,0.571916 -0.02344,-0.824219 0.02642,-0.377083 0.09573,-0.559923 0.150391,-0.941406 0.02581,-0.180283 0.03944,-0.361812 0.05859,-0.542969 0.02064,-0.331162 0.04129,-1.272993 -0.117187,-1.568359 -0.02275,-0.04244 -0.09822,0.02343 -0.134766,0.05469 -0.07372,0.06323 -0.220901,0.280813 -0.283203,0.369141 -0.03326,0.03326 -0.05504,0.114651 -0.09961,0.09961 -0.04547,-0.0155 -0.02964,-0.09499 -0.02344,-0.142578 0.03621,-0.278022 0.06752,-0.558335 0.150391,-0.826172 0.01754,-0.05662 -0.0053,0.182092 0.05273,0.169922 0.07092,-0.01474 0.06329,-0.130393 0.08594,-0.199219 0.05316,-0.161649 0.09402,-0.328518 0.140625,-0.492187 0.07755,-0.492389 0.326893,-1.156338 0.236328,-1.660156 -0.01066,-0.0593 -0.04906,0.110242 -0.07617,0.164062 -0.0911,0.180888 -0.07831,0.151919 -0.181641,0.304688 0.03496,-0.157493 0.07265,-0.314684 0.105469,-0.472657 0.04218,-0.203073 0.07148,-0.407537 0.119141,-0.609374 0.148335,-0.628184 0.368731,-1.243272 0.501953,-1.875 0.04424,-0.209802 0.06644,-0.424892 0.09961,-0.636719 0.136952,-1.096184 -0.04528,-1.937468 -0.455078,-2.935547 -0.042,-0.06618 -0.107999,-0.123137 -0.126953,-0.199219 -0.4193,-1.682997 0.08571,-0.469577 -0.509765,-2.185547 0.03375,0.07722 0.0649,0.15566 0.09961,0.232422 0.07453,0.164825 0.16554,0.32141 0.248047,0.482422 0.06094,-0.0042 0.135969,0.02872 0.18164,-0.01172 0.261952,-0.232667 0.229853,-0.849207 0.230469,-1.152343 7.02e-4,-0.344996 -0.0052,-0.638692 -0.0098,-0.984376 0.01969,-0.487867 -0.04675,-0.972369 -0.13086,-1.451171 -0.0234,-0.133267 -0.06668,-0.263471 -0.07617,-0.398438 -0.02132,-0.30342 0.04614,-0.542211 0.103516,-0.837891 0.163782,-0.526661 0.195636,-1.073641 0.232422,-1.61914 0.0087,-0.129033 0.0152,-0.217925 0.02344,-0.320313 0.182219,-0.0023 0.245405,-0.0059 0.455078,-0.0078 0.302283,-0.0023 0.609003,-0.05576 0.904297,-0.142578 0.208698,3.17e-4 0.417879,-0.0052 0.626953,-0.0098 0.429279,0.116296 0.884415,0.101919 1.332032,0.03906 1.550914,-0.158552 -0.04321,-0.0042 4.001953,-0.08789 0.382994,-0.0079 0.08649,-0.03023 0.439453,-0.06055 0.225592,-0.01928 0.257699,0.01135 0.492187,0.07031 0.263214,0.08904 0.523262,0.133838 0.748047,0.162109 -0.507689,-0.0087 -1.429379,0.0031 -3.101562,0.0957 -0.155766,0.0087 0.308039,0.04942 0.46289,0.06836 0.449381,0.05484 0.570733,0.05431 1.027344,0.07813 0.184286,0.01587 0.367794,0.05039 0.552735,0.04687 0.339691,-0.0064 0.682072,-0.08913 0.998046,-0.208984 0.0439,-0.01663 0.08412,-0.04457 0.125,-0.07031 0.466354,0.05204 0.645821,0.0069 0.01563,-0.0078 0.06771,-0.04278 0.135278,-0.08346 0.212891,-0.08984 0.907259,-0.07446 1.542869,-0.06351 2.003906,-0.02148 -0.15549,0.002 -0.176338,-8.19e-4 -0.345703,0.002 0.311082,0.09713 0.626926,0.105456 0.943359,0.08398 0.656174,0.138747 0.657092,0.287576 0.9375,-0.0957 0.0058,-5.02e-4 0.01172,-0.0014 0.01758,-0.002 -0.005,1.5e-5 -0.01251,-7e-6 -0.01758,0 0.03674,-0.05027 0.08191,-0.111341 0.13086,-0.18164 0.01882,-0.02721 0.02774,-0.04004 0.04883,-0.07031 1.022854,0.31423 2.558179,0.250894 0.535156,0.246094 0.225491,0.06471 0.4507,0.129208 0.675782,0.195312 0.897569,0.119358 1.788913,0.144063 2.685546,0.128907 0.08999,0.01474 0.180903,0.02381 0.275391,0.02344 0.02003,-1.25e-4 0.03439,-0.01777 0.04883,-0.03516 0.172195,-0.0045 0.344846,-0.0092 0.517578,-0.01563 0.05507,0.0064 0.123016,0.0138 0.158203,0.01758 0.210369,-0.0045 0.163164,-0.01097 0.46875,0.06836 0.192341,0.04989 0.37614,0.125638 0.570313,0.167969 0.578396,0.126085 1.194852,0.153613 1.783203,0.203125 3.005034,-0.08285 3.661116,0.0011 3.777344,0.03516 -0.0189,-0.02759 0.03829,-0.108276 0.617187,-0.296875 0.09691,-0.03175 0.195017,-0.07607 0.296875,-0.08008 0.06924,-0.0028 0.55046,0.305365 0.628906,0.353516 0.190489,-0.06599 0.398958,-0.137929 0.4375,-0.142578 0.08081,-0.0098 0.162957,0.01506 0.244141,0.02148 -0.04305,-0.0042 -0.08968,-0.01476 -0.08594,-0.03906 0.0076,-0.05072 0.101698,0.01122 0.152343,0.01953 0.113462,0.01814 0.226609,0.03913 0.339844,0.05859 0.463948,-0.0102 0.921846,0.08418 1.382813,0.113281 0.163086,0.0102 0.326815,0.0086 0.490234,0.0078 3.285698,-0.02003 2.974049,0.07144 3.740234,-0.01953 -0.08073,-9.07e-4 -0.161456,-0.0011 -0.242187,-0.002 0.159836,-0.01663 0.322846,-0.04075 0.492187,-0.07813 0.03889,0.0102 0.07668,0.02426 0.115235,0.03711 0.0675,-0.0087 0.07759,-0.0089 0.158203,-0.01953 0.102538,-0.0027 0.206055,-0.01047 0.308594,-0.0078 0.177713,0.0045 0.349983,0.0378 0.523437,0.06641 -0.277909,-0.0021 -0.55611,6.13e-4 -0.833984,-0.0059 -0.05371,-0.0012 -0.104735,-0.0162 -0.15625,-0.0332 -0.155717,0.02003 -0.262658,0.03061 -0.365235,0.04297 0.507149,0.0057 1.014359,0.01197 1.521485,0.01953 -0.05571,-0.006 -0.108844,-0.01437 -0.164063,-0.02344 0.221284,0.0017 0.442746,0.0055 0.664063,0.0059 0.27239,0.08935 0.342991,0.144334 0.83789,0.296875 0.674261,0.207836 0.635243,0.171814 1.320313,0.248047 1.555162,-0.02759 3.193006,0.40447 4.630859,-0.240234 0.07317,-0.03288 0.141961,-0.07595 0.210938,-0.117188 0.70557,0.02835 1.438378,0.04753 2.146484,-0.02148 -0.0035,0.435787 -0.0079,0.919892 0.191406,1.283203 0.226923,0.188107 0.148131,0.290383 0.125,0.591797 -0.06153,0.247597 -0.0049,0.576987 -0.06445,0.818359 -0.04483,0.182136 -0.145226,0.343902 -0.220703,0.515625 -0.289361,0.583805 -0.391306,1.246362 -0.232422,1.884766 0.03213,0.12892 5.3e-5,0.3796 0.132813,0.375 0.144491,-0.0049 0.131842,-0.257761 0.197265,-0.386719 0.09566,-0.283805 0.173535,-0.574459 0.28711,-0.851562 0.03515,-0.08553 0.07736,-0.167633 0.115234,-0.251953 -0.305272,0.853892 -0.526675,1.730763 -0.675781,2.625 -0.06312,0.576754 -0.182092,1.175775 -0.04883,1.751953 0.0045,0.02079 0.0099,0.05712 0.01367,0.08789 -0.03439,0.09033 -0.04386,0.127807 -0.08789,0.238281 -0.137575,0.34492 -0.326209,0.668264 -0.476563,1.007813 -0.147816,0.333846 -0.278175,0.6744 -0.417968,1.011719 -0.342199,1.061382 -0.473112,2.130614 -0.111328,3.207031 0.202015,0.601017 0.592013,1.078062 0.986328,1.556641 -0.03553,0.141014 -0.07002,0.282821 -0.105469,0.423828 -0.03553,0.205908 -0.05689,0.414453 -0.107422,0.617187 -0.02154,0.08599 -0.0827,0.157073 -0.107422,0.242188 -0.07483,0.257801 -0.126383,0.492239 -0.109375,0.751953 -0.0027,0.127257 -0.01009,0.255533 -0.0078,0.382812 9.79e-4,0.04838 0.0013,0.06379 0.002,0.103516 -0.194419,0.199975 -0.05937,-0.04115 -0.363281,0.341797 -0.286829,0.361474 -0.459079,0.784782 -0.75,1.140625 -0.198804,0.378387 -0.03441,0.458307 -0.03906,0.816406 -0.0021,0.165052 -0.206914,0.526168 -0.04492,0.494141 0.228208,-0.04513 0.268269,-0.38203 0.410157,-0.566407 0.124496,-0.1618 0.258746,-0.315174 0.388671,-0.472656 -0.624355,3.703726 -0.812519,5.484961 -0.861328,6.15625 -0.0029,-0.490461 -0.07215,-1.433403 -0.458984,-2.173828 -0.0057,-0.01096 -0.512071,0.241786 -0.519531,0.251953 -0.175446,0.239698 -0.295369,0.692826 -0.384766,0.984375 -0.0988,0.532377 0.01057,1.015607 0.195312,1.511719 0.0098,0.02608 0.02186,0.05077 0.0332,0.07617 -0.08678,-0.02192 -0.17324,-0.04176 -0.261719,-0.05469 -0.01965,-0.0029 -0.03101,0.03087 -0.05078,0.03125 -0.136063,0.002 -0.512197,-0.08593 -0.59961,-0.105468 -0.164523,-0.03666 -0.341557,-0.186819 -0.49414,-0.115235 -0.113273,0.05314 0.213427,0.130267 0.320312,0.195313 -0.06025,-0.02305 -0.119139,-0.04625 -0.179687,-0.06836 -0.04388,-0.01587 -0.832121,-0.303383 -0.826172,-0.271484 0.05027,0.269329 0.644272,0.185914 0.683593,0.457031 0.0087,0.06093 -0.116858,-0.03704 -0.175781,-0.05469 -0.456673,-0.207912 -0.695203,-0.3264 -1.191406,-0.498047 -0.217739,-0.07533 -0.432307,-0.182967 -0.662109,-0.199219 -0.6875,-0.0486 -1.377032,-0.0607 -2.066407,-0.07227 -0.09131,-0.01587 -0.242571,-0.03592 -0.511718,-0.07031 -0.433822,-0.04059 -0.846987,-0.212731 -1.283203,-0.232422 -0.09528,-0.0042 -0.665478,0.03808 -0.767579,0.04492 -1.63048,0.03061 -2.769187,-0.382876 -4.037109,0.162109 -0.09351,0.04022 -0.125569,0.05474 -0.203125,0.08789 0.513426,-0.0087 1.027363,-0.01386 1.541016,-0.01953 -0.281159,0.02192 -0.539877,0.172814 -0.816407,0.208984 -0.09252,0.0121 -0.186019,-1.13e-4 -0.279296,0 -0.599823,7.26e-4 -0.523087,5.72e-4 -0.894532,0.002 -0.569336,0.246388 -0.566503,0.272505 -1.628906,0.935547 -0.107603,0.06716 -0.405384,0.301306 -0.316406,0.210938 0.17091,-0.173594 0.376214,-0.308293 0.564453,-0.462891 0.07631,-0.05805 0.663848,-0.444414 0.753906,-0.666016 0.0018,-0.0045 -0.0019,-0.01071 -0.002,-0.01563 -1.132713,0.0053 -1.2838,0.0093 -2.34375,-0.0039 -0.0064,0.0018 -0.01273,0.004 -0.01953,0.0059 -1.751233,-0.70303 -1.749577,-0.32738 -4.990235,-0.429688 -0.375496,-0.01172 -0.808963,-0.04032 -1.185546,-0.01367 -0.173027,0.0121 -0.345674,0.04714 -0.517579,0.07031 -0.132774,0.04777 -0.268762,0.0826 -0.396484,0.142578 -0.108993,0.05118 -0.213602,0.119585 -0.304687,0.201172 0.121886,-9e-5 0.267277,-1.7e-4 0.380859,0 -0.01928,0.01134 -0.03139,0.01745 -0.04687,0.02539 -0.09377,-0.0012 -0.18748,-0.0029 -0.28125,-0.0039 -0.01943,-0.0059 -0.03911,-0.0099 -0.05859,-0.01563 0.0017,-0.0015 0.0021,-0.0042 0.0039,-0.0059 -0.0082,4e-6 -0.01732,-7e-6 -0.02539,0 0.0061,0.0018 0.01348,0.0039 0.01953,0.0059 -0.0057,0.0053 -0.01191,0.01032 -0.01758,0.01563 -0.449378,-0.0053 -0.898324,-0.01002 -1.347656,-0.01758 0.481034,-0.0037 0.807495,-0.0033 1.203125,-0.0039 -0.08969,-0.01663 -0.17324,-0.05898 -0.261719,-0.08203 -0.124422,-0.0325 -0.25136,-0.0544 -0.376953,-0.08203 -0.146117,-0.02381 -0.292121,-0.0443 -0.4375,-0.07227 -0.06497,-0.01247 -1.006202,-0.220048 -1.076172,-0.222656 -0.275618,-0.0102 -0.550438,-0.01739 -0.826172,-0.02344 -0.006,-0.470899 -0.06943,-0.938476 -0.169922,-1.400391 -3.89e-4,-0.0018 3.76e-4,-0.0059 0,-0.0078 0.03545,-0.129903 0.07269,-0.259128 0.101563,-0.390625 0.13514,-0.61564 0.254889,-1.231551 0.328125,-1.857422 -0.0091,-0.150199 -0.02483,-0.872029 -0.138672,-1.033203 -0.0094,-0.01323 -0.03478,0.02682 -0.06445,0.08008 0.05007,-0.124536 0.0841,-0.259051 0.144531,-0.378906 0.05717,-0.113386 0.137628,-0.212042 0.207031,-0.31836 0.102584,-0.157153 0.217375,-0.329802 0.326172,-0.503906 0.08729,-0.0057 0.174911,-0.0089 0.261719,-0.01953 0.468519,-0.0562 0.908043,-0.163032 1.382812,-0.177735 4.159828,-0.128655 2.695157,0.334523 4.4375,-0.283203 0.08576,-0.02759 0.170695,-0.107232 0.257813,-0.08398 0.05507,0.01474 -0.158566,0.123103 -0.142578,0.289062 0.0072,0.07521 0.207956,0.168325 0.234375,0.183594 -0.145172,0.0032 -0.290379,0.0064 -0.435547,0.0098 0.163086,0.02986 0.258707,0.06856 0.599609,0.06641 0.257802,-0.0016 0.515655,-0.0076 0.773438,-0.01172 0.31045,-0.05019 0.630484,-0.08327 0.841796,-0.05273 0.05288,0.0079 0.10451,0.0235 0.15625,0.03711 0.112026,-0.0025 0.223951,-0.003 0.335938,-0.0059 -0.04354,-0.01172 -0.08768,-0.02193 -0.126953,-0.04102 -0.0076,-0.0036 -0.0035,-0.02841 0.0039,-0.02539 0.04656,0.01965 0.0914,0.04399 0.136719,0.06641 0.568819,-0.01323 1.136225,-0.02987 1.705078,-0.04102 0.150387,0.0466 0.533157,-0.259623 0.701172,-0.173828 0.0098,0.0049 -0.01238,0.13671 -0.0098,0.15625 -0.03553,0.0049 -0.05285,0.0068 -0.08789,0.01172 0.03961,0.02079 0.07894,0.04406 0.117187,0.05664 0.196573,0.06467 0.390933,0.137791 0.585938,0.207032 1.830387,0.691256 0.318387,0.194207 4.533203,0.347656 0.155641,0.0057 0.311091,0.03289 0.466797,0.03516 0.344768,0.0049 0.668222,-0.07995 1.005859,-0.130859 0.655037,-0.14657 1.292417,-0.366387 1.873047,-0.705078 0.87007,-0.402686 -4.823291,-12.707374 -5.693359,-12.304688 -0.06304,-0.0064 -0.131098,0.005 -0.189454,-0.01953 -0.202167,-0.08568 0.145122,-0.362674 0.201172,-0.351563 -0.0045,-3.13e-4 -0.0091,-0.0016 -0.01367,-0.002 0.194303,-0.0067 0.361529,-0.01865 0.515625,-0.0332 -0.05254,-0.07115 -0.08144,-0.150488 -0.0918,-0.226562 -0.02757,0.0085 -0.05546,0.01585 -0.08203,0.02734 -0.02305,0.0102 -0.248463,0.153152 -0.386719,0.228516 -0.212181,-0.0189 -0.427931,-0.05935 -0.642578,-0.07031 -0.346998,-0.122191 -0.691466,-0.279321 -1.041015,-0.142578 -0.119925,0.01663 -0.23528,0.05595 -0.355469,0.07031 -1.228966,0.147061 -2.528254,-1.162537 -3.738281,-0.431641 -0.09211,0.0018 -0.183208,0.0167 -0.275391,0.01367 -0.112063,-0.0036 -0.223874,-0.03371 -0.335937,-0.03711 -0.136328,-0.0037 -0.641925,0.03744 -0.773438,0.04687 -0.518676,0.0091 -1.037866,0.01386 -1.556641,0.01953 -0.167621,-0.08667 -0.342807,-0.156533 -0.355468,-0.123047 -0.550031,-0.152844 -0.668076,-0.221422 -1.279297,-0.226562 -0.146268,-0.0012 -0.2894,0.0542 -0.435547,0.06055 -0.167395,0.0072 -0.334448,-0.01689 -0.501953,-0.01953 -0.676819,-0.01058 -1.354168,0.0276 -2.03125,0.05859 -0.03625,-0.006 -0.09669,-0.0121 -0.144531,-0.02344 -0.348257,-0.08115 -0.624612,-0.298737 -0.964844,-0.408204 -0.183322,-0.05552 -0.363813,-0.126318 -0.550781,-0.167968 -1.540213,-0.342955 -4.667613,-0.108944 -5.228516,-0.09375 -0.259468,0.0072 -0.518843,0.05667 -0.767578,0.130859 -0.523823,0.156246 -1.014756,0.47888 -1.480469,0.748047 -1.302262,1.237213 -2.905254,2.219434 -3.90625,3.710937 -1.538309,2.292114 -0.520297,2.491806 -0.644531,4.240235 -0.0093,0.131074 -0.07792,-0.250377 -0.113281,-0.376953 -0.03421,-0.122457 -0.06333,-0.246193 -0.0957,-0.369141 -0.02438,-0.0926 -0.04957,-0.184821 -0.07422,-0.277344 -0.06126,-0.01247 -0.127309,-0.06436 -0.183594,-0.03711 -0.225052,0.108623 -0.482425,0.602686 -0.552734,0.759765 -0.314347,0.70229 -0.449431,1.440653 -0.455078,2.207032 0.04111,0.18342 0.09731,0.362607 0.123046,0.548828 0.02676,0.193549 0.07008,1.116665 0.08594,1.333984 0.01209,0.165506 0.0032,0.335472 0.04492,0.496094 0.01228,0.04717 0.107761,0.04894 0.109375,0.09766 0.0071,0.214564 -0.05598,0.425843 -0.08398,0.638672 -0.06378,0.417165 -0.178172,0.831016 -0.261718,1.244141 -0.05043,0.249335 -0.08813,0.501927 -0.144532,0.75 -0.143731,0.632228 -0.04981,-0.126198 -0.115234,0.570312 0.01992,0.0932 0.02483,0.190932 0.06055,0.279297 0.04249,0.105147 0.207556,0.236517 0.208984,0.369141 0.0033,0.308901 -0.154344,0.610818 -0.06641,0.925781 -0.02317,0.30618 -0.02922,0.613422 -0.06836,0.917969 -0.0078,0.06078 -0.05097,0.111792 -0.07031,0.169922 -0.107985,0.324661 -0.183552,0.650894 -0.181641,0.996093 0.227951,1.030349 0.27717,2.088898 0.376954,3.136719 0.220459,1.018394 0.148278,0.850507 0.455078,1.732422 0.04265,0.122608 0.09522,0.242412 0.142578,0.363281 -0.0066,-0.02154 -0.02781,-0.08524 -0.01953,-0.06445 0.04252,0.106583 0.181556,0.420968 0.123047,0.322266 -0.120617,-0.20349 -0.207177,-0.4259 -0.310547,-0.638672 -0.01043,0.0359 -0.0058,0.07998 -0.03125,0.107422 -0.01209,0.01323 -0.02308,-0.06457 -0.02539,-0.04687 -0.04437,0.337776 0.426867,1.006802 0.236328,1.27539 0.07014,0.234822 0.123638,0.476097 0.210938,0.705078 0.114032,0.299112 0.231273,0.60047 0.392578,0.876954 0.544006,0.932451 1.030638,1.913956 1.720703,2.74414 0.458329,0.551392 1.5618,1.372134 2.380859,1.708985 0.144597,0.05945 -0.269457,-0.157185 -0.404297,-0.236329 -0.07079,-0.05227 -0.151945,-0.09474 -0.21289,-0.158203 -0.0226,-0.02343 0.06481,0.01808 0.09375,0.0332 0.165369,0.0861 0.320915,0.187365 0.488281,0.269532 0.601757,0.295408 1.154278,0.544523 1.798828,0.699218 -0.285154,-0.138367 -0.407434,-0.182406 -0.666016,-0.367187 -0.08827,-0.06308 -0.173215,-0.132336 -0.25,-0.208984 -0.05264,-0.05254 -0.206361,-0.197842 -0.134765,-0.177735 0.499092,0.140372 0.40794,0.444972 0.462891,0.238282 0.201153,0.132206 0.394042,0.277909 0.603515,0.396484 0.677634,0.383645 0.793792,0.423268 1.396485,0.648437 0.224442,0.08387 0.436724,0.231984 0.675781,0.248047 2.134458,0.143433 2.762761,0.177551 3.52539,0.140625 l 0.08594,0.03711 c 0.204435,0.06074 0.402936,0.146491 0.613281,0.18164 0.172422,0.02872 0.340853,-0.08606 0.515625,-0.08984 0.262715,-0.0057 0.726743,0.102143 0.960938,0.111328 0.393111,0.0155 0.786434,0.0242 1.179687,0.03516 0.231912,-0.05189 0.429133,-0.120634 0.521484,-0.21875 0.02306,-0.02419 0.01015,-0.07144 0.0332,-0.0957 0.01323,-0.01399 0.0374,1.4e-4 0.05664,0 1.155277,0.576151 -0.181491,-0.06854 3.550782,0.154297 0.07245,0.0042 0.12045,0.08213 0.18164,0.121093 0.06346,0.0404 0.118635,0.07142 0.175781,0.105469 0.04951,-0.02684 0.09997,-0.05111 0.150391,-0.08203 0.467055,-0.48141 0.454391,0.06179 0.933594,0.09766 1.493393,0.111761 2.997812,0.04339 4.490234,0.175781 0.199257,-0.01058 0.400131,-0.0029 0.597656,-0.03125 0.282596,-0.04052 0.516055,-0.108457 0.75,-0.189453 0.97152,-0.0027 1.944077,-0.0033 2.914063,-0.05273 0.198765,-0.0102 0.382901,-0.10625 0.570312,-0.173828 -0.40261,0.01096 -0.806128,0.01695 -1.208984,0.02148 0.293896,-0.05896 0.58557,-0.135119 0.886719,-0.138672 0.331427,-0.02003 0.552189,-0.03479 0.753906,-0.04492 0.342917,-0.13867 0.601907,-0.278286 1.005859,-0.490234 -0.152806,-0.09109 -0.271522,-0.164251 -0.378906,-0.230469 0.06932,0.03836 0.185161,0.09978 0.394531,0.205078 0.0057,0.0029 0.01153,0.0048 0.01758,0.0078 0.06799,-0.03553 0.09276,-0.04812 0.173829,-0.08984 0.274809,-0.182249 0.543426,-0.374022 0.824218,-0.546875 0.04902,-0.03024 -0.07929,0.08491 -0.126953,0.117188 -0.273902,0.185612 -0.553347,0.363779 -0.833984,0.539062 0.188523,0.09471 0.37926,0.184416 0.572266,0.269531 -0.01512,-7.4e-4 -0.07265,9.34e-4 -0.08398,0 -0.0912,-0.0076 -0.30429,-0.121949 -0.521484,-0.25 -0.05273,0.03288 -0.103186,0.06932 -0.15625,0.101563 -0.217172,0.131943 -0.479893,0.199539 -0.673828,0.359375 0.463657,-0.0189 1.158907,-0.01299 2.382812,-0.0039 0.196687,0.07506 0.471038,0.181479 0.457031,0.128906 0.01814,0.0032 0.07157,0.01544 0.09961,0.02148 0.165354,-0.01474 0.332598,-0.01298 0.498047,-0.02734 0.274204,-0.02419 0.07693,-0.01892 0.27539,-0.04492 0.123062,-0.01625 0.138658,-0.01047 0.261719,-0.0078 0.232063,0.01776 0.464825,0.01351 0.697266,0.0098 0.135269,-0.0098 0.27364,0.0155 0.408203,0 0.01096,-0.0011 0.01827,-0.01153 0.02734,-0.01758 0.200126,-0.08137 0.409843,-0.04234 0.617188,-0.03516 0.01852,-6e-5 0.14447,-1.2e-5 0.154297,-0.002 0.006,-0.0011 -0.0091,-0.0076 -0.01367,-0.01172 0.05076,-0.01323 0.09884,-0.0295 0.150391,-0.03906 0.15171,-0.02797 0.210941,-0.02268 0.367187,-0.02344 0.345676,0.02079 0.691061,0.01977 1.037109,0.01563 0.205456,-0.002 0.411733,1e-5 0.617188,0 0.245291,-3.78e-4 0.491037,-5.7e-5 0.736328,0 0.186784,2.5e-5 0.373755,0 0.560547,0 0.145096,0.03783 0.266496,-0.03938 0.402344,-0.06055 0.10405,-0.01625 0.108375,-0.0094 0.214843,-0.002 0.196309,0.01625 0.393271,0.0069 0.589844,0.0039 0.245972,-3.93e-4 0.49231,0.0025 0.738282,0.002 0.346884,-3.52e-4 0.69413,-4.2e-5 1.041015,0 0.0912,-1.1e-5 0.182275,0 0.273438,0 0.144604,7e-6 0.288943,0 0.433593,0 h 0.509766 c 0.152882,-0.02381 0.315061,0.06238 0.449219,0.07031 0.170305,-0.01701 0.34269,-0.02608 0.513672,-0.01172 0.169096,-0.0013 0.33872,-0.0019 0.507812,-0.002 0.219439,4.75e-4 0.438764,5.1e-5 0.658203,0 0.119887,-3.5e-5 0.239526,-4e-6 0.359375,0 0.04086,-0.02495 0.0883,-0.04919 0.113281,-0.05664 0.03175,-0.0094 0.06258,-0.01487 0.0918,-0.01563 0.04868,-0.0017 0.09478,0.0049 0.146485,0.0098 0.01928,0.0033 0.03917,0.0079 0.05859,0.01172 h 0.002 c 0.02683,-0.01512 0.04043,-0.02345 0.06836,-0.03906 1.06196,-0.768503 0.732605,-0.466634 1.556641,-1.263672 0.293896,-0.284258 1.028228,-0.932547 1.169921,-1.355469 0.02079,-0.06225 -0.0023,-0.131654 -0.0039,-0.197265 -0.08663,0.03099 -0.302739,0.175122 -0.259765,0.09375 0.157455,-0.298319 0.417007,-0.530538 0.628906,-0.792969 0.03515,-0.04362 0.06628,-0.09163 0.111328,-0.125 0.02835,-0.02117 0.07813,-0.0064 0.101563,-0.0332 0.698395,-0.793958 0.264869,-0.689304 0.6875,-0.769532 0.122002,-0.166979 0.236793,-0.339442 0.367187,-0.5 0.0072,-0.0087 0.02067,0.0079 0.03125,0.01172 l 0.195313,-0.359375 c 0.02835,-0.05828 0.131145,-0.185068 0.06641,-0.183594 -0.02343,5.22e-4 -0.159813,0.179108 -0.208985,0.242188 0.843379,-1.448474 1.516736,-2.981237 1.5,-4.703125 -2.3e-4,-0.166186 -0.0012,-0.33256 -0.0059,-0.498047 0.06546,0.0083 0.145323,-0.05357 0.199219,-0.09961 0.460274,-0.393245 0.570585,-1.059412 0.677734,-1.611329 0.01776,-0.304061 0.06695,-0.607861 0.05273,-0.912109 -0.0098,-0.211918 -0.0682,-0.418826 -0.111329,-0.626953 0.140523,-0.22526 0.282678,-0.466873 0.367188,-0.589844 0.09562,-0.267704 0.207286,-0.529886 0.287109,-0.802734 0.0474,-0.161991 0.11321,-0.717771 0.136719,-0.884766 0.01776,-0.126992 0.131278,-0.69404 0.06445,-0.867187 -0.01701,-0.04392 -0.0938,-0.0091 -0.140625,-0.01367 -0.219326,0.173783 -0.05518,0.06182 0.132813,-0.324219 0.902222,-1.852456 -0.273524,0.471929 0.611328,-1.503906 0.02192,-0.04902 0.07583,-0.07672 0.113281,-0.115234 0.03832,-0.09339 0.07691,-0.187897 0.115234,-0.28125 0.172725,-0.571223 0.268283,-1.026102 0.263672,-1.628907 -0.003,-0.397606 0.08005,-0.451838 -0.115234,-0.646484 -0.0325,-0.12446 -0.113105,-0.240561 -0.111328,-0.369141 0.0057,-0.415321 0.06087,-0.828121 0.09375,-1.242187 0.0011,-0.01323 0.0063,-0.02231 0.0078,-0.03516 -0.298734,0.181191 -0.522101,0.186466 -0.470703,-0.353515 0.03099,-0.324435 0.002,-0.294766 0.09766,-0.554688 0.0102,-0.02721 0.02417,-0.05309 0.03906,-0.07813 -0.07328,-0.0155 -0.149092,-0.02911 -0.212891,-0.05273 -0.331011,0.09657 -0.550708,0.03704 -0.388672,-0.470703 0.03515,-0.110287 -0.0091,-0.313826 0.105469,-0.330078 0.0098,-0.0014 0.02067,-0.0024 0.03125,-0.0039 0.0064,-0.0189 0.0114,-0.03743 0.01367,-0.05273 0.03859,-0.250734 0.08172,-0.50103 0.119141,-0.751953 0.05405,-0.361096 0.104281,-0.722586 0.15625,-1.083984 0.01701,-0.118148 0.04503,-0.221856 0.07617,-0.320313 v -0.410156 -0.09961 c -0.02684,0.05858 -0.130036,0.32162 -0.105469,0.238282 0.02608,-0.08901 0.07145,-0.171488 0.105469,-0.257813 v -0.845703 c 0,-0.161839 0.01703,-0.306635 0.04687,-0.435547 -0.05756,-0.35074 -0.133669,-0.697949 -0.201171,-1.046875 -0.02608,0.04861 -0.122815,0.25363 -0.09375,0.189453 0.02948,-0.06535 0.06325,-0.128578 0.09375,-0.193359 -0.01058,-0.05454 -0.0218,-0.109336 -0.03125,-0.164062 -0.0091,-0.05254 -0.03742,-0.13875 -0.06055,-0.216797 -0.34526,-0.0079 -0.48494,-0.09249 -0.06445,-0.361329 0.355691,-0.227413 0.644244,-0.683733 1.066406,-0.683593 0.06958,1.9e-5 0.129622,0.02455 0.183594,0.0625 0.0102,-0.265323 -0.01891,-0.52714 -0.148438,-0.775391 -0.02003,0.006 -0.02345,0.0072 -0.03906,0.01172 0.04293,-0.142413 0.08456,-0.284639 0.130859,-0.425781 0.08417,-0.296467 0.162265,-0.595769 0.251953,-0.890625 0.03946,-0.129827 0.104442,-0.253004 0.136719,-0.384766 0.161612,-0.660045 0.04885,-1.33985 -0.238281,-1.947266 -0.07688,-0.18754 -0.17394,-0.367295 -0.228516,-0.5625 -0.03628,-0.129562 -0.0064,-0.281422 -0.06445,-0.408203 -0.06153,-0.31491 0.170603,-0.758151 0.175781,-1.076172 0.0793,-0.487903 0.111832,-0.991108 0.05469,-1.484375 -7.98e-4,-0.01247 -0.0014,-0.01122 -0.002,-0.01953 -0.0036,-0.05359 -0.0024,-0.03827 -0.0098,-0.128906 -0.01587,-0.138293 -0.01247,-0.257237 0.02344,-0.392578 0.0098,-0.03628 0.02073,-0.07189 0.0332,-0.107422 0.0076,-0.02154 0.0247,-0.04181 0.02734,-0.06445 0.0057,-0.04898 -0.0031,-0.09716 -0.0039,-0.146485 3.82e-4,-0.26468 0.04007,-0.529233 0.01758,-0.792968 -0.0257,-0.108511 -0.07932,-0.330854 -0.0918,-0.423828 -0.02646,-0.19626 0.0045,-0.402813 0.002,-0.59961 0.0038,-0.03122 0.0076,-0.06261 0.01172,-0.09375 0.0023,-0.01602 0.01361,-0.03081 0.01172,-0.04687 -0.02381,-0.200126 -0.10295,-0.390388 -0.109375,-0.59375 0.0016,-0.0697 0.001,-0.139324 0.0039,-0.208984 0.0026,-0.05688 0.0064,-0.113233 0.01172,-0.169922 3.74e-4,-0.0043 0.0222,0.01324 0.0098,-0.0098 -0.0072,-0.06112 -0.04562,-0.205755 -0.05469,-0.24414 -0.01209,-0.08384 -0.02987,-0.167425 -0.03516,-0.251953 -0.0079,-0.123202 0.01387,-0.245819 0.0078,-0.369141 -0.0094,-0.19561 -0.0276,-0.25632 -0.05859,-0.455078 -0.01512,-0.09894 -0.03026,-0.197844 -0.04492,-0.296875 0.0026,-0.03352 0.01487,-0.255458 0.02734,-0.298828 0.0019,-0.0066 0.02218,-0.0035 0.01953,-0.0098 -0.01625,-0.03908 -0.04411,-0.07144 -0.06641,-0.107422 -0.08028,-0.175986 -0.103332,-0.315659 -0.132812,-0.505859 -0.04214,-0.272379 -0.07884,-0.54543 -0.115235,-0.81836 -0.06943,-0.07557 -0.130606,-0.15689 -0.195312,-0.236328 -0.180208,-0.221892 -0.327498,-0.47472 -0.535156,-0.669922 -0.07926,-0.07449 -0.243472,-0.02797 -0.302735,-0.11914 -0.367037,-0.565608 -0.625023,-1.194082 -0.9375,-1.791016 -0.727952,-0.713069 -1.41624,-1.468191 -2.183593,-2.138672 -0.315515,-0.275687 -1.483584,-0.741031 -1.785157,-0.855469 -0.143697,-0.05453 -0.432335,0.03394 -0.566406,-0.04492 -1.351181,-0.144926 -2.737439,-0.250013 -4.080078,-0.08398 0.20708,0.03318 0.408192,0.06557 0.640625,0.105469 -0.209575,-0.01308 -0.295143,-0.02844 -0.507812,-0.002 -0.08844,0.01115 -0.172749,0.04717 -0.261719,0.05273 -0.223786,0.01398 -0.460401,-0.07953 -0.685547,-0.01172 -0.01361,-6.07e-4 -0.02722,-0.0014 -0.04102,-0.002 -0.178356,0.03981 -0.355351,0.08637 -0.53125,0.138672 -0.07037,-0.0031 0.36417,-0.0076 -0.333984,0 -0.291364,-0.01814 -0.609726,-0.08879 -0.875,-0.171875 -0.109375,-2.88e-4 -0.21875,-0.0042 -0.328125,-0.0039 0.04054,-0.0049 0.08095,-0.0093 0.04883,-0.0098 -5.61724,-0.07959 -3.910017,-0.145274 -2.732422,0.06836 0.884379,-0.03033 1.773967,-0.05328 2.662109,-0.05664 -0.06037,0.0076 -0.134134,0.01821 -0.173828,0.0293 -0.39507,0.110094 -0.04836,0.08193 -0.371093,0.09375 -1.540422,0.09887 -3.083556,0.132705 -4.628907,0.04883 -0.182891,-0.02169 -0.537495,-0.04253 -0.701172,-0.121094 -0.06138,-0.02948 -0.10946,-0.08118 -0.162109,-0.125 -0.415234,-0.01633 -0.830856,-0.03254 -1.246094,-0.04883 -0.02835,0.0077 -0.02005,0.0052 -0.05078,0.01367 -0.02199,-0.007 -0.04422,-0.01175 -0.06641,-0.01758 0.03906,0.0014 0.07817,0.0024 0.117187,0.0039 0.797613,-0.218865 0.495142,-0.149027 -0.796875,-0.09766 0.220855,0.0078 0.440573,0.032 0.660157,0.0918 -0.561038,-0.02198 -1.122515,-0.04572 -1.683594,-0.06641 0.414425,-0.005 0.719938,-0.01529 1.023437,-0.02734 -0.305726,-0.01077 -0.613285,0.0077 -0.927734,0.01758 -0.197896,-0.0021 -0.395831,-0.0037 -0.59375,-0.0059 -0.126841,-0.0052 -0.253947,-0.01159 -0.380859,-0.0098 -0.01776,2.85e-4 -0.02571,0.0025 -0.05273,0.0039 -0.769542,-0.0084 -1.539048,-0.01738 -2.308594,-0.02539 -0.402839,-0.04816 -0.805663,-0.101286 -1.208984,-0.128907 -0.08716,-0.006 -0.173554,0.03944 -0.259766,0.02539 -0.190751,-0.03111 -0.331391,-0.227744 -0.52539,-0.246094 -0.293896,-0.116247 -0.602318,-0.254164 -0.917969,-0.300781 -0.357241,-0.05275 -0.9716,-0.02026 -1.324219,-0.0078 -4.530315,0.158618 -2.976228,-0.316665 -4.904296,0.349609 -0.01247,0.0049 -0.03552,0.01416 -0.04883,0.01953 -0.24582,-0.06324 -0.490865,-0.127565 -0.740234,-0.167969 -0.307654,-0.04985 -0.246122,0.05072 -0.556641,0.08203 -0.128957,0.013 -0.259124,-0.0036 -0.388672,-0.0059 -1.806949,-0.186871 0.187655,0.01037 -2.414062,-0.0332 0.113839,-0.0076 0.22372,-0.02438 0.318359,-0.06836 0.0596,-0.0277 0.106714,-0.07694 0.160157,-0.115235 -0.1327,-0.0014 0.463087,-0.0638 0.345703,-0.0625 -0.682999,0.0075 -1.365845,0.0093 -2.048828,0.02148 0.312982,0.09038 0.654043,0.190308 0.96875,0.220703 -0.539997,-0.01122 -1.193476,-0.02907 -2.125,-0.0625 -0.05837,-0.0021 -0.189174,-0.111966 -0.13086,-0.115234 0.428902,-0.02404 0.85757,-0.03526 1.28711,-0.04297 -0.212448,-0.06135 -0.413088,-0.116533 -0.574219,-0.134766 -0.654447,-0.04744 -1.310258,-0.221905 -1.958984,-0.02148 -0.52713,0.0065 -1.077053,-0.01328 -1.63086,-0.02734 0.0294,-0.02714 -0.19975,-0.12182 -0.285156,-0.162109 -0.466926,-0.220249 -0.960726,-0.24091 -1.464844,-0.160157 -0.479826,0.02426 -0.591277,0.02177 -1.066406,0.07617 -0.166768,0.01909 -0.332236,0.06287 -0.5,0.06836 -1.504866,0.04925 -3.173466,-0.267383 -4.646484,0.255859 0.172133,-0.0024 0.356688,-0.0048 0.511718,-0.0059 -0.151547,0.0404 -0.300972,0.09155 -0.449218,0.154297 -0.65763,0.0045 -1.315032,0.0082 -1.972657,0.01367 0.04594,-0.01418 0.09246,-0.02715 0.140625,-0.04102 0.05746,-0.01656 0.229684,-0.05454 0.169922,-0.05664 -1.048502,-0.03693 -2.036698,-0.04232 -2.68164,-0.04297 0.17312,0.02744 0.343737,0.08155 0.515624,0.117188 -0.956974,0.0071 -1.914128,0.0261 -2.871093,0.03711 -0.141491,0.02188 -0.280812,0.05978 -0.423828,0.06641 -0.09856,0.0046 -0.194902,-0.02044 -0.292969,-0.03125 -0.120333,-0.02706 -0.241321,-0.0528 -0.361328,-0.08203 -0.496961,0.01228 -0.99447,0.02839 -1.490235,0.06445 -0.245839,0.01788 -0.470273,0.146155 -0.701171,0.232422 -0.05614,0.02098 -0.146242,0.05845 -0.214844,0.08594 0.550665,-0.0319 1.115216,0.03352 1.68164,0.109375 -0.698827,0.01417 -1.398123,0.03056 -2.095703,0.0625 -0.258519,0.111322 -0.518593,0.226687 -0.708984,0.318359 -0.122291,0.05889 -0.248918,0.265524 -0.361328,0.189453 -0.103506,-0.07005 0.195426,-0.156248 0.292969,-0.234375 0.155193,-0.08828 0.320243,-0.160539 0.470703,-0.255859 -0.295329,0.01689 -0.590351,0.03455 -0.884766,0.06445 -0.337757,0.03432 -0.639888,0.225836 -0.951172,0.361328 -1.684556,0.733252 -0.06118,0.09011 -1.240234,0.644531 -0.03628,0.01708 -0.08126,0.0017 -0.117188,0.01953 -0.171713,0.08518 -0.33364,0.189806 -0.5,0.285156 -1.43012,0.567276 -2.1416,2.094989 -2.9374998,3.298828 -0.575239,0.937222 -0.9018957,1.974591 -0.9042968,3.080078 7.419e-4,-0.02699 -0.00206,-0.0528 -0.021484,-0.06836 -0.026948,-0.02154 -0.054829,0.04727 -0.070312,0.07813 -0.04611,0.09184 -0.080049,0.189219 -0.1113281,0.287109 C 7.5572534,34.764857 7.5188787,34.908208 7.5,34.996094 7.49694,34.952914 7.486014,34.906184 7.453125,34.873047 7.507104,35.024901 7.4752786,34.912117 7.4160156,35.25 7.3669236,35.529795 7.3199026,35.809055 7.265625,36.087891 7.2219,36.312519 7.17288,36.536414 7.1230469,36.759766 c -0.218812,0.980738 -0.072446,0.618693 -0.390625,1.246093 -0.047758,0.165733 -0.1152513,0.328101 -0.1445313,0.498047 -0.083399,0.484097 -0.032725,0.7245 0.00195,1.212891 0.039916,0.56214 0.075628,1.126816 0.25,1.667969 0.048268,0.217171 0.134045,0.510815 0.1152343,0.74414 -0.00847,0.104996 -0.052429,0.203989 -0.076172,0.306641 -0.094193,0.407131 -0.1700881,0.818334 -0.1699218,1.238281 -0.033751,0.541274 -0.095516,1.100133 -0.074219,1.642578 0.028044,0.714297 0.2390816,1.391003 0.4433594,2.070313 0.070564,0.234255 0.045267,0.146497 0.085937,0.283203 -0.00907,0.03326 -0.01763,0.07274 -0.027344,0.09375 -0.3571125,1.081549 -0.5850107,2.001912 -0.390625,3.160156 0.024794,0.118602 0.2672842,1.518164 0.609375,1.22461 0.016252,-0.01398 0.1043495,-0.23848 0.1230468,-0.285157 -0.2034066,0.578003 -0.3587531,1.141882 -0.4511718,1.75 -0.00998,0.06554 -0.021696,0.170042 0.060547,0.205078 0.022866,0.0098 0.049678,-0.0079 0.074219,-0.01172 0.023282,-0.0079 0.058879,-0.04509 0.070312,-0.02344 0.016328,0.03099 0.01528,0.10628 0.00977,0.193359 -0.058137,0.11127 -0.1052519,0.229799 -0.1582031,0.34375 -0.4421439,1.196754 -0.8820783,2.436804 -0.7773438,3.732422 0.019276,0.189317 0.030577,0.377914 0.056641,0.566407 0.060072,0.434868 0.1266357,0.582501 0.1601563,1.009765 0.011112,0.141619 0.00371,0.283732 0.00586,0.425782 -0.00548,0.137347 -0.025036,0.274957 -0.015625,0.412109 0.00968,0.14109 0.047823,0.278704 0.072266,0.417969 0.056205,0.162482 0.1199767,0.45454 0.2832031,0.574218 0.034734,0.02532 0.061666,0.02221 0.085937,0.0098 -0.01406,0.04048 -0.028459,0.0808 -0.042969,0.121094 -0.1895849,0.424883 -0.4028947,0.848744 -0.5097656,1.304687 -0.1554218,0.663069 -0.1187229,1.326689 0.017578,1.990235 0.1394041,0.608281 0.1252046,0.693291 0.390625,1.257812 0.020976,0.0446 0.055309,0.105693 0.091797,0.160156 -0.024076,0.118564 -0.050746,0.213101 -0.085938,0.125 -0.1267614,0.422559 -0.1873311,0.854264 -0.00781,1.277344 0.028233,0.06652 0.092936,0.115045 0.1210937,0.181641 0.02143,0.05068 0.017076,0.107722 0.025391,0.162109 -0.093747,0.450663 -0.046207,0.16955 -0.1035156,0.695313 -0.018444,0.169209 -0.013305,0.343217 -0.056641,0.507812 -0.010356,0.03934 -0.036207,-0.172561 -0.1347657,-0.08008 -0.072004,0.06754 -0.1198274,0.157827 -0.1796874,0.236328 -0.077031,0.04328 -0.1710093,0.06356 -0.2304688,0.128906 -0.3771439,0.414505 -0.3682548,1.21196 -0.1484375,1.695313 0.033184,0.07302 0.1001494,0.124986 0.1503906,0.1875 -0.033222,0.192794 -0.060242,0.386488 -0.099609,0.578125 -0.1129323,0.54974 -0.2014167,0.773347 -0.2363282,1.169922 -0.015194,0.0486 -0.029705,0.09792 -0.044922,0.146484 -0.043986,0.18943 -0.088826,0.378931 -0.1328126,0.568359 0.00824,-0.07608 0.02248,-0.152017 0.025391,-0.228515 l -0.00195,-0.002 c 0.01542,-0.06387 0.02723,-0.135789 0.027344,-0.212891 1.145e-4,-0.06225 -0.07816,0.09608 -0.1171875,0.144531 0.00506,-0.07325 0.055423,-0.15703 0.015625,-0.21875 -0.024227,-0.03742 -0.074934,0.05332 -0.097656,0.0918 -0.079922,0.135307 -0.1382779,0.282523 -0.2070313,0.423828 -0.06124,0.125859 -0.4597726,0.943396 -0.5117187,1.054688 -0.04642,0.09948 -0.08682,0.200246 -0.1308594,0.300781 -0.091064,0.267402 -0.1967282,0.53087 -0.2734375,0.802734 -0.055457,0.196536 -0.08668,0.398652 -0.1230469,0.59961 -0.052996,0.292838 -3.468e-4,0.61551 -0.2265625,0.873047 -0.044663,0.122532 -0.088081,0.245411 -0.1347656,0.367187 -0.0065,0.01701 0.019454,-0.07001 0.013672,-0.05273 -0.027326,0.08168 -0.1633307,0.233546 -0.078125,0.246094 0.053046,0.0079 0.091085,0.0083 0.1191406,0.002 -0.1966564,0.441467 -0.3218613,0.725573 -0.5429688,1.345703 -0.090311,0.253304 -0.099645,0.528561 -0.1582031,0.791016 -0.044296,0.198537 -0.1989946,0.366613 -0.15625,0.589843 -0.038283,0.246425 -0.069518,0.495068 -0.1152344,0.740235 -0.00584,0.03137 -0.018569,-0.06399 -0.015625,-0.0957 0.030811,-0.331803 0.2304275,-1.038526 -0.234375,-0.449218 -0.076906,0.160176 -0.1706267,0.313172 -0.2304687,0.480468 -0.090315,0.252473 -0.167856,0.510156 -0.21875,0.773438 -0.039062,0.202091 -0.038673,0.409775 -0.050781,0.615234 -0.026268,0.445739 -0.068978,0.891397 -0.064453,1.337891 0.00593,0.585532 -0.037202,1.183628 0.095703,1.753906 0.2024931,0.86888 0.6003101,1.681299 0.9003907,2.521485 0.4350328,0.57465 0.8169868,1.193926 1.3046874,1.724609 0.429419,0.467263 1.2475385,1.069961 1.8847657,1.34375 0.078217,0.03364 0.1719199,-3.22e-4 0.2558593,0.01367 0.4451906,0.07536 0.4911798,0.101282 0.8613282,0.21875 0.2382878,0.09899 0.4708903,0.212818 0.7148437,0.296875 0.065756,0.02268 -0.119436,-0.07055 -0.1757812,-0.111328 -0.096733,-0.07 -0.3088635,-0.304574 -0.1894531,-0.304688 0.1053542,-1.24e-4 0.2057112,0.04572 0.3085937,0.06836 0.2320781,0.218041 0.177834,0.174574 0.6230469,0.46875 0.5580933,0.36873 0.803699,0.531341 1.4648436,0.496093 1.004563,-0.178393 -0.127052,-0.02337 1.382813,0.01367 0.164594,0.0042 0.329427,-3.97e-4 0.49414,0 -0.06297,-0.02608 -0.123636,-0.05273 -0.173828,-0.08398 -0.0048,-0.06762 -0.01077,-0.03127 0.134766,-0.002 0.111364,0.02268 0.222198,0.0569 0.332031,0.08789 1.13642,-0.0079 2.274267,-0.06513 3.40625,0.02539 0.385519,0.03061 -0.439538,0.163288 -1.447266,0.197266 1.067583,0.07551 1.578648,0.0829 1.875,0.07617 -0.05933,-0.0435 -0.06428,-0.170259 -0.126953,-0.224609 -0.04748,-0.0412 -0.102327,-0.073 -0.15625,-0.105469 0.08237,0.04845 0.166682,0.09157 0.263672,0.109375 0.282626,0.121021 0.410537,0.17555 0.511719,0.21875 0.02041,0.0022 0.03935,0.0037 0.0625,0.0078 -0.471059,-0.264378 -2.438384,-1.386813 4.234375,0.236328 0.152893,0.03704 0.211577,0.06426 0.208984,0.08398 0.08287,0.01058 0.166028,0.03742 0.248047,0.02344 0.788097,0.01436 1.577134,0.02313 2.365234,0.03711 0.005,-0.0018 0.01545,-0.0022 0.01953,-0.0039 0.156408,-0.06947 0.309854,-0.158439 0.07813,-0.337891 -0.02956,-0.02305 -0.06136,-0.04225 -0.09375,-0.06055 0.05948,0.02759 0.119538,0.05403 0.175781,0.08789 0.106647,0.06425 0.194095,0.157263 0.279297,0.248047 0.0203,0.02154 0.03644,0.04815 0.05078,0.07813 0.234251,0.0053 0.468936,0.0077 0.703125,0.01563 0.07687,0.0026 0.148249,0.03796 0.222656,0.05859 -0.272594,8.95e-4 -0.572284,-0.0011 -0.892578,-0.0059 -0.01063,-0.02183 -0.02261,-0.04425 -0.0332,-0.06641 -0.169837,-0.0042 -0.339904,-0.0087 -0.509766,-0.01172 -0.08859,0.03213 -0.30203,0.06211 -0.222656,0.06445 0.269787,0.0079 0.519478,0.01223 0.765625,0.01562 0.02547,0.05182 0.05521,0.09705 0.107422,0.103516 1.296708,0.160441 2.611141,0.113384 3.910156,0.253906 0.453632,0.04906 0.810877,0.508748 1.316407,0.376954 0.267583,0.0155 0.535428,0.06653 0.802734,0.04687 0.467288,-0.03439 1.018018,-0.222686 1.449219,-0.404296 0.157927,-0.06652 0.630969,-0.209153 0.460937,-0.230469 -0.07213,-0.0091 -0.144543,-0.01197 -0.216797,-0.01953 0.04666,-0.01474 0.09406,-0.02697 0.142579,-0.02734 0.0818,-8.05e-4 0.156273,0.04568 0.236328,0.0625 0.09622,0.02003 0.194562,0.0276 0.291015,0.04687 0.108983,0.02154 0.215107,0.07199 0.326172,0.07422 3.166297,0.06312 2.893422,0.149951 3.876953,0.0098 -0.415575,-0.0064 -0.754418,-0.01348 -1.267578,-0.01953 0.184653,-0.05601 0.338049,-0.160752 0.53125,-0.179688 0.323063,-0.03175 0.620976,0.08052 0.925781,0.171876 0.08857,-0.01285 0.11905,-0.015 0.228516,-0.03125 0.210369,-0.04543 0.51238,-0.1282 0.736328,-0.121094 0.219742,0.0072 0.344203,0.09188 0.552735,0.144531 0.129863,0.03288 0.31079,0.05805 0.505859,0.07813 -0.457625,-0.01247 -1.102949,-0.0261 -1.904297,-0.03906 0.0794,0.02154 0.158854,0.04402 0.240234,0.05664 2.078961,0.595404 0.42036,0.197575 4.78125,0.232422 0.331087,0.0026 0.577645,0.06449 0.910157,0.01563 0.215395,-0.03175 0.564538,-0.169332 0.77539,-0.246094 0.06108,-0.01058 0.122517,-0.02262 0.183594,-0.0332 -0.945876,0.0015 -1.892457,0.01084 -2.837891,-0.01563 -0.08375,-0.0024 0.163335,-0.04407 0.244141,-0.06641 0.06285,-0.01739 0.122341,-0.05054 0.1875,-0.05273 0.05454,-0.0018 0.105403,0.02722 0.158203,0.04102 0.374173,0.08152 0.672046,0.08071 1.052734,0.07617 0.914756,-0.01096 1.458888,-0.01487 1.904297,-0.01563 0.332901,0.483904 1.640565,0.1752 2.113282,0.232422 0.381785,0.05238 0.781543,0.148253 1.173828,0.105469 0.131301,-0.01436 0.25663,-0.07397 0.388672,-0.07813 0.757459,-0.02343 1.541657,-0.04843 2.330078,-0.05859 0.539285,0.177033 1.123608,0.107396 1.691406,0.105469 1.31664,-0.0098 2.63335,0.01681 3.949219,-0.0293 0.33925,-0.01172 1.290647,-0.354219 1.609375,-0.501953 0.20897,-0.09687 0.392154,-0.249637 0.609375,-0.326172 0.10851,-0.03825 -0.183737,0.137488 -0.275391,0.207031 -0.131149,0.08179 -0.478531,0.11638 -0.394531,0.246094 0.09075,0.140107 0.329426,-0.0566 0.492187,-0.09375 0.386151,-0.08803 0.743948,-0.214374 1.095703,-0.382813 0.156775,-0.04486 0.31219,-0.09648 0.470704,-0.134765 0.08999,-0.02154 0.195465,-0.09485 0.273437,-0.04492 0.05371,0.03439 -0.124342,0.181716 -0.06055,0.18164 0.228964,-3.1e-4 0.443521,-0.113533 0.66211,-0.18164 0.134815,-0.04203 0.182286,-0.06472 0.265625,-0.09375 -1.357066,0.04426 -1.628842,0.09817 -0.685547,-0.09375 0.149745,-0.03742 0.294917,-0.107599 0.449218,-0.109375 0.11229,-0.0013 0.265662,0.06709 0.425782,0.138672 0.15103,-0.06085 0.287888,-0.127495 0.560547,-0.257813 0.18051,-0.01209 -0.192574,-0.0018 0.04297,0.0957 0.08379,0.03477 0.187844,-0.02148 0.271485,0.01367 0.127067,0.05314 0.08964,0.128577 0.05078,0.1875 -0.294463,0.0038 -0.55114,0.01115 -0.791016,0.01758 0.18875,0.08149 0.378332,0.148518 0.519532,0.105469 0.931472,-0.0042 1.863458,-0.0045 2.794921,-0.0098 0.335396,0.125934 0.678416,0.210633 1.015626,0.205079 0.292005,-0.0049 0.535076,-0.06886 0.818359,-0.126954 0.01285,-0.0042 0.562962,-0.187563 0.617187,-0.189453 1.459866,-0.05163 2.651773,0.145021 3.962891,-0.132812 0.118224,-0.01285 0.19456,0.03328 0.279297,0.08789 0.682949,-0.319672 1.195513,-0.597788 3.199219,-0.01953 -0.788652,0.0121 -1.577411,0.02231 -2.365235,0.05859 -0.05197,0.0024 0.09255,0.04848 0.140625,0.06836 0.152353,0.06304 0.297676,0.107666 0.462891,0.128907 0.310261,0.03987 0.354255,0.01367 0.671875,-0.02148 0.01209,-0.0017 0.69745,-0.09934 0.707031,-0.09961 0.563713,-0.01739 1.12738,-0.0213 1.691406,-0.02734 0.543867,0.164031 1.077438,0.363513 1.648438,0.410156 0.266041,0.03326 0.531362,0.08067 0.798828,0.09961 0.07676,0.0053 0.867755,-0.03327 0.916016,-0.03516 4.005452,-0.136856 2.96007,0.253002 5.259765,-0.580078 0.342388,-0.0751 0.448715,-0.168638 0.302735,0.222657 -0.02117,0.05681 -0.135862,0.138298 -0.08008,0.162109 0.147249,0.06282 0.699906,-0.0683 0.839843,-0.0957 0.54666,-0.1488 0.492652,-0.124687 1.263672,-0.439453 0.175786,-0.07177 1.167075,-0.789658 1.205078,-0.07227 0.131603,-0.04464 0.272996,-0.06905 0.396485,-0.132813 0.07287,-0.0378 0.115196,-0.116062 0.18164,-0.164062 0.12291,-0.08874 0.258254,-0.162528 0.384766,-0.246094 0.566048,-0.373908 1.132069,-0.745924 1.693359,-1.126953 0.114709,-0.07786 0.238816,-0.147247 0.333985,-0.248047 0.436259,-0.46196 0.83728,-0.955555 1.255859,-1.433594 0.157304,-0.251753 0.340423,-0.489122 0.470703,-0.755859 0.05914,-0.121023 0.163087,-0.365946 0.257813,-0.587891 0.900457,-0.708993 0.882509,-1.317843 0.693359,-1.720703 -0.03957,0.08518 -0.196618,0.422816 -0.267578,0.572266 0.01625,-0.05575 0.04064,-0.121796 0.05273,-0.171875 0.05783,-0.23966 0.115004,-0.390081 0.164063,-0.507812 0.01852,0.03213 0.034,0.06983 0.05078,0.105468 0.1488,-0.320164 0.220689,-0.510821 0.601562,-1.550781 0.344656,-0.941065 0.692535,-1.527953 0.488282,-2.560547 -0.05163,-0.19389 -0.102631,-0.388134 -0.154297,-0.582031 -0.07759,-0.139389 -0.183137,-0.266228 -0.232422,-0.417969 -0.108775,-0.33479 -0.159403,-0.68624 -0.238281,-1.029297 -0.214602,-0.933222 -0.396728,-1.876028 -0.666016,-2.794922 0.274205,-0.631748 0.322289,-1.380621 0.179688,-2.044921 -0.06055,-0.282104 -0.192949,-0.54436 -0.289063,-0.816407 -0.08379,-0.101631 -0.189565,-0.187635 -0.25,-0.304687 -0.08236,-0.159496 -0.09457,-0.694894 -0.0957,-0.808594 -0.0028,-0.286413 0.01367,-0.57294 0.01367,-0.859375 -8e-6,-0.06361 -0.03333,-0.130896 -0.01367,-0.191406 0.02305,-0.07136 0.08983,-0.119555 0.134766,-0.179688 0.0641,-0.09604 0.139211,-0.186108 0.191406,-0.289062 0.436656,-0.861426 0.254089,-1.805786 -0.113281,-2.654297 -0.122344,-0.356901 -0.277939,-0.730374 -0.291016,-1.115234 -0.0091,-0.269405 0.386959,-0.716751 0.324219,-1.017579 0.129033,-0.707512 0.644058,-1.308904 0.572265,-2.060547 -0.03904,-0.185876 -0.07009,-0.37266 -0.117187,-0.55664 -0.102274,-0.399919 -0.347417,-0.882926 -0.283203,-1.314453 0.04305,-0.289361 0.764249,-0.345219 0.392578,-0.785157 0.280592,-0.778695 0.554797,-1.574354 0.480469,-2.419921 -0.02381,-0.270841 -0.105591,-0.532953 -0.152344,-0.800782 -0.143244,-0.820123 -0.06113,-0.656716 -0.166016,-0.902343 0.01058,-0.0019 0.01651,0.0028 0.03125,-0.0039 0.159232,-0.07313 0.307694,-0.177154 0.425782,-0.30664 0.654095,-0.717143 0.806634,-1.664605 0.8125,-2.597657 -0.0381,-0.221517 -0.23573,-1.862906 -0.570313,-2.080078 -0.170381,-0.110589 -0.375798,0.195433 -0.490234,0.363282 -0.0553,0.08111 -0.105442,0.165314 -0.158203,0.248046 0.274165,-0.51076 0.482203,-0.92253 0.365234,-0.828124 0.645846,-1.212511 1.39411,-2.48633 0.966797,-3.908204 -0.07774,-0.25867 -0.220396,-0.493385 -0.330078,-0.740234 -0.519591,-1.003166 -0.280441,-0.426773 -0.646485,-1.755859 -0.113272,-0.411224 -0.233525,-0.821303 -0.339844,-1.234375 -0.0064,-0.0257 -0.0083,-0.10351 0.0039,-0.08008 0.135534,0.266947 0.288455,0.732977 0.384765,1.005859 0.04963,0.132812 0.09175,0.268459 0.148438,0.398437 0.03402,0.07809 0.05433,0.274953 0.123047,0.22461 0.129033,-0.09449 0.133653,-0.292159 0.179687,-0.445313 0.192945,-0.641869 0.18429,-1.27739 0,-1.921875 -0.19302,-0.547736 -0.379104,-1.098346 -0.566406,-1.648437 0.01398,-0.118488 0.03214,-0.236993 0.05859,-0.353516 0.111156,-0.491671 0.12083,-0.239095 0.193359,-0.757812 0.01965,-0.14177 0.02105,-0.284937 0.03125,-0.427735 0.0022,-0.132019 0.02185,-0.572791 -0.02539,-0.720703 -0.02419,-0.07608 -0.109203,-0.120364 -0.136718,-0.195312 -0.06501,-0.177033 -0.09163,-0.365707 -0.136719,-0.548829 -0.182022,-0.739172 -0.117823,-0.470953 -0.28125,-1.240234 -0.01852,-0.127559 -0.05169,-0.254021 -0.05664,-0.382812 -7.22e-4,-0.0189 0.02306,-0.04718 0.04102,-0.04102 0.02835,0.0098 0.03705,0.04687 0.05273,0.07227 0.03666,0.05843 0.07048,0.240197 0.103516,0.179687 0.08455,-0.154847 0.08557,-0.894253 0.08984,-1.044922 -0.02381,-0.187532 -0.03976,-0.376293 -0.07227,-0.5625 -0.04192,-0.239935 -0.141753,-0.468081 -0.177734,-0.708984 -0.0793,-0.531431 -0.09338,-0.959376 0.125,-1.458985 0.120491,-0.743828 0.168527,-1.123882 -0.144532,-1.839843 -0.108547,-0.248296 -0.205777,-0.509901 -0.371093,-0.72461 -0.02759,-0.03606 -0.06198,-0.06991 -0.09766,-0.103515 0.0325,-0.06061 0.05475,-0.108927 0.05664,-0.113282 0.06788,-0.158618 0.124452,-0.32299 0.158203,-0.492187 0.04014,-0.200995 0.04171,-0.407421 0.0625,-0.611328 -0.0689,-0.558547 -0.09134,-0.982181 -0.296875,-1.525391 -0.06213,-0.16425 -0.263354,-0.312998 -0.314453,-0.498047 -0.01058,-0.03807 0.02835,-0.19741 0.03516,-0.228515 0.132246,-0.451868 0.276198,-0.903982 0.212891,-1.382813 -0.0076,-0.467981 -0.09372,-0.917618 -0.25,-1.357422 0.149065,-0.108022 0.15083,-0.459244 0.207031,-0.628906 0.05526,-0.439135 0.05957,-0.874599 0.08398,-1.316406 0.01739,-0.312854 0.06262,-0.624314 0.07227,-0.9375 0.0045,-0.150728 -0.0091,-0.302404 -0.01367,-0.453125 -0.03024,-0.142137 -0.05056,-0.286398 -0.0918,-0.425781 -0.02608,-0.0877 -0.03515,-0.198701 -0.109376,-0.251953 -0.03175,-0.02279 -0.08516,-0.01414 -0.125,0.0078 0.01928,-0.14592 0.03478,-0.301104 0.04688,-0.513672 0.04906,-0.869251 -0.01758,-1.737623 -0.0293,-2.605469 -0.01247,-0.109602 -0.01141,-0.220911 -0.03711,-0.328125 -0.01625,-0.06759 -0.05973,-0.125862 -0.08789,-0.189453 -0.07612,-0.172085 -0.124037,-0.358547 -0.22461,-0.517578 -0.05118,-0.08094 -0.162347,-0.109586 -0.220703,-0.185547 -0.247143,-0.321913 -0.223945,-0.453956 -0.30664,-0.851562 -0.05061,-0.26829 -0.109636,-0.53503 -0.152344,-0.804688 -0.02041,-0.128553 -0.03409,-0.258546 -0.03711,-0.388672 -0.0013,-0.05859 0.0054,-0.118718 0.02539,-0.173828 0.0045,-0.01293 0.04352,0.0052 0.03906,-0.0078 -0.16218,-0.477014 -0.04145,-0.454103 -0.296876,-0.431641 -0.141239,0.185375 -0.07464,0.07689 -0.1875,0.333985 -0.02381,0.03496 -0.08758,0.116073 -0.101562,0.07617 -0.0378,-0.107436 0.02559,-0.229352 0.0078,-0.341797 -0.26416,-1.657263 -0.242015,-1.346547 -0.884765,-2.888671 C 90.624715,11.03156 90.56977,10.813868 89.835938,10.128906 89.718923,10.019678 89.578512,9.9393071 89.443359,9.8535156 89.398534,9.8250558 89.318751,9.7627579 89.255859,9.7207031 89.06745,9.5328341 88.882895,9.3405375 88.685547,9.1621094 88.623903,9.1063538 88.545614,9.0716445 88.476562,9.0253906 88.129678,8.7931122 87.734036,8.4891985 87.333984,8.3300781 c -0.03175,-0.012661 -0.06854,0.035922 -0.09961,0.021484 C 86.953141,8.2213408 86.689369,8.055188 86.417969,7.90625 86.239877,7.8333852 85.520496,7.5369042 85.466797,7.53125 84.98564,7.4805741 84.284532,7.3897962 83.533203,7.3183594 c 0.03591,-5.496e-4 0.06302,-0.00145 0.09961,-0.00195 0.0426,-5.921e-4 -0.0835,-0.015753 -0.125,-0.025391 -0.174121,-0.040547 -0.345826,-0.095733 -0.523437,-0.1210937 -0.212901,-0.025058 -0.291592,-0.044326 -0.511719,-0.033203 -0.09645,0.00488 -0.192495,0.031805 -0.289062,0.033203 -1.214139,0.017461 -2.770357,0.1148095 -4.125,0.00195 0.364308,-0.00559 0.738335,-0.015209 1.02539,-0.015625 C 77.546706,7.0190988 80.087487,7.2894518 78.263672,7.0898438 76.202019,7.1138814 73.743057,6.7271566 71.876953,7.9316406 71.71209,7.7931247 71.773471,7.8745765 71.683594,7.6679688 71.659405,7.6121338 71.673754,7.5053669 71.613281,7.5 71.412928,7.482274 71.21694,7.570839 71.019531,7.609375 c -0.569178,0.1111106 -0.355691,0.046359 -0.83789,0.2578125 -0.04906,0.021581 -0.302134,0.1252743 -0.535157,0.2363281 -0.0032,-3.885e-4 -0.0064,3.931e-4 -0.0098,0 C 69.133589,7.8818085 68.554211,7.7108335 68.074219,7.5527344 66.578845,7.1873221 66.964629,7.2206538 65.470703,7.0917969 65.119585,7.0615229 64.768347,7.0349178 64.416016,7.0273438 64.31669,7.0252087 63.955488,7.112792 63.792969,7.0175781 63.658153,6.9386049 63.537625,6.8363941 63.410156,6.7460938 63.203492,6.6741807 63.005409,6.5750169 62.791016,6.53125 62.214626,6.4135857 61.61084,6.4501031 61.033203,6.515625 c -0.256441,0.029102 -0.510334,0.083577 -0.763672,0.1328125 -0.160743,0.031257 -0.31476,0.1085473 -0.478515,0.109375 -0.242155,0.00123 -0.479034,-0.069141 -0.71875,-0.1035156 -2.763187,-0.012699 -3.906401,-0.057501 -4.388672,-0.09375 0.0057,0.036132 -0.14128,0.096384 -0.578125,0.1855469 -2.117462,-0.044606 -0.732899,0.1029037 -2.107422,-0.046875 -0.334413,0.011868 -0.728569,0.087583 -1.058594,0.00586 -0.130205,-0.03224 -0.24477,-0.109172 -0.373047,-0.1484375 C 50.12374,6.4211408 50.07235,6.4492503 49.605469,6.4296875 c 0.108737,8.05e-5 0.217435,6.88e-5 0.326172,0 -2.449796,-0.087405 -4.899296,-0.096092 -7.345703,0.044922 -0.38631,0.036359 -0.514934,0.071474 -0.763672,0.042969 -0.353915,0.1018281 -0.702648,0.2229769 -1.03711,0.3847657 -0.128353,0.062098 -0.232296,0.1724167 -0.367187,0.21875 -0.05242,0.018028 -0.108062,-0.02475 -0.16211,-0.037109 -0.785612,-0.00873 -1.571814,-0.01666 -2.357421,-0.025391 0.07397,-0.020031 0.295688,-0.03788 0.220703,-0.039063 -0.685104,-0.010847 -1.278103,-0.011707 -1.78125,-0.00781 0.110683,0.00745 0.221465,0.017707 0.332031,0.033203 0.408748,0.00454 0.817808,0.00914 1.226562,0.013672 -0.09815,0.02725 -0.199772,0.069149 -0.261718,0.1425781 1.072308,0.045827 3.595695,0.4313593 -3.917969,-0.072266 -0.06098,-0.00409 -1.028632,-0.6562971 -1.072266,-0.5859374 -0.05769,-0.02725 -0.115023,-0.056635 -0.171875,-0.085938 -0.04879,0.070065 -0.226416,0.2103951 -0.548828,0.4863282 -0.04313,0.054282 -0.0637,0.1385629 -0.128906,0.1621094 C 31.730273,7.1288244 31.6618,7.0722096 31.59375,7.0625 30.769111,6.944798 31.962439,7.167362 30.851562,6.9570312 c -0.208704,-0.039515 -0.413632,-0.1039291 -0.625,-0.125 -0.04845,-0.00484 -0.09263,0.032958 -0.138671,0.048828 -0.390982,0.077582 -0.788018,0.045353 -1.183594,0.035156 -0.3133,-0.00809 -0.460406,-0.010208 -0.777344,-0.017578 0.08455,0.053537 0.188862,0.1257419 0.152344,0.1308594 -0.178507,0.02502 -0.358898,-0.068063 -0.537109,-0.1386719 -0.03834,-8.568e-4 -0.05762,-0.00111 -0.0957,-0.00195 -0.0043,-0.00726 -0.0068,-0.013673 -0.01172,-0.019531 0.04095,6.157e-4 0.01051,0.00132 0.05273,0.00195 -0.03118,-0.011225 -0.06269,-0.023275 -0.09375,-0.03125 -0.06148,-0.04306 -0.127785,-0.07846 -0.193359,-0.1152344 C 26.928709,6.4600785 26.435909,6.1748727 25.875,6.203125 c -0.168953,-0.00442 -0.338833,-0.01696 -0.507812,-0.013672 -0.07098,0.00138 -0.140136,0.032522 -0.210938,0.027344 C 24.513209,6.1697479 25.026249,6.1762399 24.578125,6.0488281 24.458979,6.0149641 24.33283,6.0044409 24.210938,5.9824219 L 23.601562,5.8085938 C 23.252309,5.7622189 22.404751,5.622007 22.027344,5.6738281 c -0.139076,0.019087 -0.240534,0.1738982 -0.38086,0.1777344 -1.420937,0.038854 -2.842309,-0.033486 -4.263672,-0.050781 -0.02079,0.024302 -0.037,0.052964 -0.0625,0.072266 -0.0086,0.0065 -0.02251,-0.00152 -0.0332,-0.00195 C 17.16878,5.6639852 16.982898,5.4813493 16.798828,5.3339844 16.181186,4.8395024 15.465478,4.5806398 14.695312,4.4160156 14.342897,4.3606539 13.993542,4.2864048 13.638672,4.25 13.287018,4.2139263 12.932049,4.193106 12.578125,4.1953125 Z M 27.6875,6.8710938 c 0.01807,0.0065 0.03658,0.01235 0.05469,0.019531 0.154147,0.00345 0.227897,0.00415 0.384765,0.00781 -0.01119,-0.00711 -0.02307,-0.015324 -0.0332,-0.021484 -0.404581,-0.00601 -0.08097,-9.718e-4 -0.40625,-0.00586 z m 4.785156,-0.4140626 c 0.03507,-0.050362 -0.01648,-0.061667 -0.115234,-0.058594 0.0383,0.019578 0.07699,0.03888 0.115234,0.058594 z M 32.357422,6.3984375 C 32.241492,6.3391409 32.124734,6.2827333 32.001953,6.2402344 31.533236,6.0779955 30.752401,5.9332385 30.261719,5.9609375 c -0.301822,0.017046 -1.182274,0.098187 -0.890625,0.1777344 1.6411,0.4476136 2.659799,0.2699242 2.986328,0.2597656 z m 5.277344,0.8027344 c -0.387286,-0.016554 -0.592478,0.00752 -0.05664,0.1386719 0.0021,-0.058749 0.02536,-0.1016099 0.05664,-0.1386719 z M 36.337891,7.0117188 c -0.389289,-0.026154 -0.778636,-0.011972 -1.169922,-0.019531 -1.011874,0.088626 -0.414547,0.031777 1.169922,0.019531 z m 5.484375,-0.4941407 c 0.296844,-0.08541 0.596891,-0.157193 0.898437,-0.2265625 1.117228,-0.1438601 3.790738,-0.4616885 -2.253906,-0.021484 -0.235616,0.017159 0.470911,0.044562 0.703125,0.087891 0.132435,0.024718 0.254779,0.09005 0.386719,0.1171875 0.107603,0.02211 0.19079,0.034393 0.265625,0.042969 z m 8.109375,-0.087891 c 0.06516,0.00232 0.130153,0.00342 0.195312,0.00586 0.04097,-0.00354 0.08204,-0.00322 0.123047,-0.00586 -0.106129,1.58e-4 -0.212268,-6.73e-5 -0.318359,0 z m 4.751953,0.1308594 v -0.00195 c -0.02268,-0.080878 -0.657831,-0.047475 0,0.00195 z M 15.369141,26.482422 c 0.102209,-0.0059 0.204347,-0.01289 0.30664,-0.01758 0.15323,-0.06598 0.281787,-0.116918 0.414063,-0.169922 -0.228348,0.01323 -0.452628,0.0613 -0.675782,0.115234 0.02619,-0.0026 0.08315,-0.01714 0.06641,-0.0039 -0.03538,0.02789 -0.07337,0.05212 -0.111328,0.07617 z m 3.126953,-0.572266 c 0.842177,-0.02083 1.685302,-0.02341 2.527344,-0.04687 1.489751,-0.0063 1.931952,-0.0057 -3.039063,-0.06055 -0.04648,-4.91e-4 0.09298,0.0129 0.138672,0.02148 0.125276,0.02347 0.249059,0.05574 0.373047,0.08594 z m 40.662109,0.783203 c 0.300019,0.01179 0.600349,0.02359 0.900391,0.03516 0.08674,0.01844 0.741415,0.176103 0.919922,0.166015 0.206778,-0.01172 0.239053,-0.147513 0.402343,-0.246093 0.274848,-0.165922 0.366084,-0.151526 0.681641,-0.205079 -2.040522,0.04086 -3.10449,0.0027 -3.626953,-0.03711 0.209726,0.04529 0.45533,0.1174 0.673828,0.248047 0.01776,0.0107 0.03288,0.02563 0.04883,0.03906 z m 6.386719,0.07617 c 0.580762,0.0015 1.160621,0.0082 1.740234,0.0332 0.282482,-0.06304 0.568078,-0.107043 0.855469,-0.142578 -3.675557,-0.589087 -3.461188,-0.161708 -2.595703,0.109375 z M 78.160156,54.9375 c 0.08292,-0.02419 0.176971,-0.07818 0.269532,-0.117188 6.41e-4,-0.0844 -0.0059,-0.169396 -0.0059,-0.253906 0.0013,-0.03402 0.0026,-0.06908 0.0039,-0.103515 -0.16354,-0.02759 -0.330179,-0.06014 -0.464843,-0.07813 -0.03175,0.05136 -0.06282,0.105315 -0.0957,0.160156 -0.09789,0.163275 0.05365,0.303872 0.292968,0.392578 z M 53.619141,79.091797 c -0.06319,0.0026 -0.143915,0.004 -0.212891,0.0078 -0.12034,0.04864 -0.252472,0.09908 -0.423828,0.160157 -0.0025,8.88e-4 -0.0052,0.0011 -0.0078,0.002 0.279005,-0.0076 0.557201,-0.01613 0.835938,-0.03125 0.08958,-0.0049 -0.31642,-0.02571 -0.253906,-0.08984 0.01852,-0.01928 0.04213,-0.03212 0.0625,-0.04883 z m 0.830078,-0.460938 c 0.01096,-0.0068 0.02224,-0.01273 0.0332,-0.01953 -0.01247,-0.0064 -0.02464,-0.01311 -0.03711,-0.01953 -0.01323,0.0068 -0.02035,0.01077 -0.0332,0.01758 0.01436,0.0087 0.02275,0.01279 0.03711,0.02148 z m -16.400391,0.820313 c -0.09063,0.02041 -0.183801,0.03822 -0.283203,0.05273 0.729146,-0.0072 1.730371,-0.0064 3.369141,0.02539 -1.028776,-0.02759 -2.057211,-0.04905 -3.085938,-0.07813 z m -0.283203,0.05273 c -2.190789,0.02154 -1.015637,0.14846 0,0 z m 9.900391,-19.804687 c -0.08326,-0.04388 -0.166862,-0.08528 -0.242188,-0.04687 -0.03099,0.01587 -0.01637,0.04424 0.0078,0.07617 0.08991,-0.0121 0.140982,-0.01607 0.234375,-0.0293 z m -0.234375,0.0293 c -0.634995,0.08659 -1.18118,0.155869 -1.654297,0.210937 0.492068,0.207874 0.488917,0.187918 1.107422,0.332031 0.39507,0.01739 0.623498,0.214934 0.677734,-0.173828 0.0102,-0.07283 4.59e-4,-0.148488 -0.02148,-0.21875 -0.01512,-0.04815 -0.07445,-0.10394 -0.109375,-0.15039 z m -1.654297,0.210937 c -0.04021,-0.01701 -0.06164,-0.02459 -0.109375,-0.04492 -0.03666,-0.0155 -0.07167,-0.03516 -0.107422,-0.05273 0.0031,0.0028 0.0067,0.0048 0.0098,0.0078 0.06282,0.06251 -0.174789,-0.03554 -0.261718,-0.05273 -0.07907,-0.0098 -0.157261,-0.01947 -0.236328,-0.0293 -0.02154,-0.0049 -0.0431,-0.01 -0.06445,-0.01563 -0.332597,0.0076 -0.665403,0.01071 -0.998046,0.01563 -1.043622,0.168643 -1.91612,0.600685 1.767578,0.171875 z m -0.419922,-0.193359 c -0.0045,1.09e-4 -0.0091,-1.06e-4 -0.01367,0 0.01323,0.0036 0.02572,0.0079 0.03906,0.01172 -0.0083,-0.0042 -0.01707,-0.0076 -0.02539,-0.01172 z m -2.720703,-0.0332 c -0.08583,-0.01587 -0.186034,-0.02898 -0.361328,-0.03125 -0.137689,-0.0016 -0.273413,0.02117 -0.410157,0.04687 0.257159,-0.0057 0.514341,-0.01033 0.771485,-0.01563 z m -0.771485,0.01563 c -0.673167,0.01474 -1.346363,0.03022 -2.019531,0.04492 0.153676,0.01928 0.464089,0.06239 0.611328,0.0625 0.112592,8.5e-5 0.225299,-0.02697 0.337891,-0.02734 0.119395,-4.46e-4 0.23814,0.03068 0.357422,0.02539 0.0155,-6.8e-4 -0.01865,-0.0261 -0.02734,-0.03906 0.06743,6.88e-4 0.135698,0.0013 0.203125,0.002 0.180321,0.0032 0.358602,-0.03476 0.537109,-0.06836 z m -2.980468,6.359375 c 0.0042,7.59e-4 0.0076,0.0034 0.01172,0.0039 0.0019,2.95e-4 -0.0043,-0.0035 -0.0039,-0.0039 -0.0026,3e-6 -0.0052,-4e-6 -0.0078,0 z m 0.0078,0 c 0.04362,-7.2e-5 0.09018,3.7e-5 0.132813,0 -0.05756,-0.01814 -0.114679,-0.03668 -0.173829,-0.04492 -0.02041,-0.0028 0.04582,0.03967 0.04102,0.04492 z m 9.919922,0.02734 c 0.175521,-8.08e-4 0.367748,-0.0012 0.628906,-0.002 0.112139,-0.04853 0.278097,-0.11831 0.449219,-0.191406 -0.373153,0.0064 -0.746921,0.01587 -1.119141,0.04297 -0.05238,0.0038 0.04094,0.09419 0.04102,0.15039 z m 6.855469,-26.125 c 0.02343,0.0025 0.04658,0.0083 0.07031,0.0098 0.0788,0.0053 0.315283,-0.0043 0.236328,-0.0059 -0.102198,-0.0016 -0.204442,-0.0025 -0.30664,-0.0039 z m -8.222657,-0.03906 c -0.127822,0.0443 -0.263736,0.09099 -0.271484,0.09375 -0.283464,0.0884 -0.505521,0.155377 -0.724609,0.205078 1.790165,-0.02117 2.21328,0.176098 1.027343,-0.279297 -0.0017,-9.41e-4 -0.02709,-0.01689 -0.03125,-0.01953 z M 46.449219,40.25 c -0.446423,0.0053 -0.955617,0.01965 -1.572266,0.06641 -0.204926,0.0155 0.411698,0.02779 0.617188,0.0293 0.394087,0.0034 0.672014,-0.03137 0.955078,-0.0957 z M 34.941406,39.185547 c -0.1296,-0.03704 -0.259536,-0.07251 -0.388672,-0.111328 -0.03932,-0.01172 -0.07819,-0.02648 -0.117187,-0.03906 0.06055,0.02079 0.115701,0.0492 0.144531,0.103516 0.04182,0.07876 -0.175802,0.02988 -0.263672,0.04492 -0.024,0.0017 -0.04823,0.0055 -0.07227,0.0078 0.199596,-5.4e-4 0.542646,-0.0059 0.697265,-0.0059 z m 8.396485,40.644531 c 0.04981,0.01323 0.099,0.02872 0.148437,0.04297 0.595975,0.06754 0.49023,0.07754 1.097656,0.0625 0.17983,-0.0045 0.718621,-0.016 0.539063,-0.02734 -0.745013,-0.04604 -1.304548,-0.06723 -1.785156,-0.07813 z m 10.357421,0.988281 c 0.143849,-0.06232 0.287885,-0.125274 0.435547,-0.177734 0.02683,-0.0094 -0.04228,0.03992 -0.05664,0.06445 -0.0024,0.0042 -0.0016,0.02451 -0.0039,0.0332 0.109531,-0.02457 0.167258,-0.03476 0.335938,-0.07422 0.152882,-0.03742 0.304705,-0.07027 0.457031,-0.0957 -0.633505,0.006 -1.266885,0.01115 -1.90039,0.01758 0.03553,0.03742 0.08588,0.06454 0.107421,0.111328 0.01512,0.03288 0.01616,0.08273 0.0098,0.132812 0.25247,0.01202 0.435639,0.01655 0.615234,-0.01172 z m 1.103516,-0.167968 c 0.04399,-0.02759 0.08935,-0.05346 0.132813,-0.08203 -0.01247,1.18e-4 -0.02268,-1.17e-4 -0.03516,0 0.0042,-0.0025 0.0056,-0.0034 0.0098,-0.0059 -0.01361,0.0022 -0.02722,0.0034 -0.04102,0.0059 0.0092,-5.7e-5 0.02009,8.5e-5 0.0293,0 -0.04407,0.02532 -0.08833,0.0572 -0.0957,0.08203 z M 73.220703,20.746094 c -0.173216,0.01009 -0.314646,0.02004 -0.470703,0.0293 -0.07877,0.04459 -0.156391,0.09337 -0.236328,0.134765 -0.113651,0.05885 -0.125952,0.06637 -0.226563,0.119141 0.283918,0.0021 0.539753,0.0048 0.857422,0.0078 -0.0042,-0.0052 -0.0114,-0.0068 -0.01367,-0.01367 -0.02154,-0.06091 0.06059,-0.186144 0.08984,-0.277344 z m -0.07617,0.291015 c 0.03984,0.05085 0.14864,0.02733 0.21875,0.04492 0.03213,0.03031 0.07896,0.04907 0.0957,0.08984 0.04622,0.112471 -0.142988,0.224579 -0.113281,0.216797 0.04071,-0.01066 0.35675,-0.174716 0.388672,-0.283203 0.0083,-0.02861 -0.04006,-0.04277 -0.06055,-0.06445 -0.205984,-0.0024 -0.333204,-0.002 -0.529297,-0.0039 z M 51.494141,6.4316406 c 0.252472,0.010091 0.505604,0.021598 0.757812,0.021484 0.165997,-7.52e-5 0.662057,-0.020086 0.496094,-0.021484 -0.41794,-0.0036 -0.835944,-7.86e-5 -1.253906,0 z M 24.849609,6.828125 c -0.491102,-0.00941 0.756708,0.010542 2.648438,0.039063 0.01493,0.00722 0.02982,0.012917 0.04492,0.019531 -1.062612,-0.023282 -2.293763,-0.050944 -2.69336,-0.058594 z m 31.841797,0.082031 c 0.06799,-0.00333 -0.135131,0.015309 -0.203125,0.011719 -0.0027,-1.41e-4 -0.0048,-0.00179 -0.0078,-0.00195 0.07034,-0.00345 0.140638,-0.00629 0.210937,-0.00977 z M 80.0625,7.109375 c -0.759266,0.057241 0.01625,-0.011037 -0.259766,0.050781 0.808147,0.00763 1.006812,0.021128 0.259766,-0.050781 z m -0.259766,0.050781 c -0.207571,-0.00196 -0.419216,-0.00436 -0.714843,-0.00391 0.167395,0.015458 0.347982,0.069943 0.519531,0.042969 0.134929,-0.021203 0.146367,-0.028083 0.195312,-0.039063 z m -2.419922,0.025391 c -0.06092,0.015156 -0.121118,0.034086 -0.183593,0.037109 -0.06338,0.00306 -0.252874,-0.029322 -0.189453,-0.03125 0.145738,-0.00442 0.235322,-0.00244 0.373046,-0.00586 z m 1.248047,9.1855471 c 0.01096,-0.0055 0.02111,-0.0061 0.02148,0.002 0.0015,0.06408 -0.0041,0.127464 -0.0098,0.191406 -0.01209,-0.06495 -0.0196,-0.09481 -0.0332,-0.169922 -0.0014,-0.0079 0.01052,-0.01796 0.02148,-0.02344 z m -58.085937,2.189453 c 0.409529,0.195927 0.300607,0.271512 -0.07031,0.285156 l 0.002,-0.002 c 0.03761,-0.09133 0.06285,-0.187672 0.06836,-0.283203 z m 59.242187,0.738281 c 0.226016,0.134536 0.449698,0.438719 0.425782,0.445313 -0.02305,0.0064 -0.04782,-0.0139 -0.06445,-0.03125 -0.126539,-0.132106 -0.254028,-0.265893 -0.361329,-0.414063 z m -21.966797,0.494141 c 0.22836,-0.0175 0.435362,0.05351 0.675782,0.06836 0.03972,0.0024 0.08512,-0.02067 0.11914,0 0.03175,0.01928 0.084,0.100346 0.04687,0.101563 -1.18783,0.03906 -2.375924,0.02007 -3.564453,0.02344 0.828201,-0.04792 1.656133,-0.09342 2.484375,-0.140625 0.08315,-0.03092 0.162163,-0.04691 0.238281,-0.05273 z m 20.185547,0.169922 c 0.02079,0.01754 0.174234,0.134992 0.1875,0.183593 0.0121,0.04439 -0.01125,0.09267 -0.0098,0.138672 0.0028,0.08989 0.03176,0.164743 0.07617,0.230469 -0.255572,-0.01882 -0.550767,-0.03494 -0.90625,-0.04687 0.234822,-0.145153 0.454757,-0.315296 0.652343,-0.505859 z m -44.253906,0.01367 c 0.07161,0.04011 0.143886,0.07566 0.216797,0.109376 -0.05922,-0.0024 -0.118539,-0.0029 -0.177734,-0.0059 -0.08571,-0.0044 -0.05096,-0.07362 -0.03906,-0.103516 z m 21.091797,0.02539 c 0.166715,0.05753 0.323944,0.138714 0.478516,0.228516 -0.59867,0.01141 -1.497374,0.01992 -2.701172,-0.04102 -0.07839,-0.004 0.146725,-0.0601 0.222656,-0.08008 0.266457,-0.07013 0.127558,-0.0035 0.400391,-0.01758 0.533416,-0.02752 1.066355,-0.05926 1.599609,-0.08984 z m 27.429688,0.177735 c 0.5576,0.005 1.114315,0.05632 1.664062,0.169921 1.420978,0.128444 3.132586,0.399582 -2.759766,-0.123047 0.364233,-0.03269 0.730503,-0.05017 1.095704,-0.04687 z m -7.074219,0.238281 c 0.14434,-10e-4 0.290002,0.0097 0.423828,0.03125 -0.276057,7.37e-4 -0.53807,-5.17e-4 -0.851563,0.0039 0.13372,-0.02215 0.280745,-0.0341 0.427735,-0.03516 z m -28.951172,0.08594 c 0.02872,0.0039 0.05729,0.0044 0.08594,0.0078 -0.764723,-0.0058 -0.979093,-0.0077 -0.08594,-0.0078 z m 47.267578,2.027344 c -0.0057,0.05608 -0.0085,0.112553 -0.01758,0.167969 -0.01058,0.06703 -0.253303,0.412707 0.01758,-0.167969 z m -62.78125,3.101562 c 0.106492,-0.01848 0.574175,0.09561 1.378906,0.140626 -0.350785,0.04674 -0.696988,0.115563 -1.033203,0.222656 -0.309521,-0.257775 -0.426069,-0.349339 -0.345703,-0.363282 z m -4.523437,0.150391 c -0.312087,0.0043 -0.561337,0.0036 -0.927735,0.01367 -0.08099,0.0022 0.161846,0.01293 0.242188,0.02344 0.296462,0.03876 0.387056,0.04872 0.68164,-0.03516 0.0014,-4.79e-4 0.0025,-0.0015 0.0039,-0.002 z m -4.554688,0.0059 c -0.733332,0.0189 -0.466154,0.01112 0.251953,0.01172 -0.08319,-0.01209 -0.167579,-0.01796 -0.251953,-0.01172 z m 1.683594,0.126954 c 0.05504,3.83e-4 0.135005,0.01493 0.21875,0.03125 -0.273469,0.0015 -0.546837,0.006 -0.820313,0.0059 -0.08983,-6.6e-5 -0.180315,-0.01367 -0.269531,-0.03125 0.290346,-0.0023 0.58074,-0.0078 0.871094,-0.0059 z m 0.947265,0.0293 c -0.06514,0.02083 -0.126472,0.04782 -0.179687,0.101563 -0.145424,-0.01207 -0.350449,-0.06278 -0.525391,-0.09766 0.23505,-0.0012 0.470029,-0.002 0.705078,-0.0039 z m 21.40625,0.46875 c -0.101442,0.08984 -0.131855,0.05869 -0.267578,0.08789 -0.06546,0.0141 -0.122442,0.06151 -0.189453,0.0625 -0.110664,0.0016 -0.471886,-0.07745 -0.710937,-0.130859 0.389571,-0.0057 0.778601,-0.0092 1.167968,-0.01953 z m -2.582031,0.05273 c -0.24068,0.09502 -0.48315,0.178556 -0.658203,0.199219 -0.07835,0.0092 -0.252556,-0.157196 -0.173828,-0.16211 0.276926,-0.01727 0.554761,-0.0277 0.832031,-0.03711 z m 7.25586,0.101562 c 0.140408,0.0015 0.56573,0.02207 1.070312,0.04102 -0.219969,0.04051 -0.438603,0.08094 -0.662109,0.08984 -0.458151,-0.10224 -0.596152,-0.132893 -0.408203,-0.13086 z m 3.308593,0.07813 c 0.102652,-2.24e-4 0.189461,7.39e-4 0.296875,0 -0.14245,0.0234 -0.04592,0.04208 -0.265625,0.0059 -0.01058,-0.0017 -0.02067,-0.0039 -0.03125,-0.0059 z m 16.501953,0.273438 c 0.04978,-0.0033 -0.1005,0.01145 -0.15039,0.01172 -0.0384,2.06e-4 -0.0095,-2.01e-4 -0.04687,0 0.06573,-0.0042 0.131577,-0.0073 0.197265,-0.01172 z m -4.146484,0.277344 c 0.0026,-2.44e-4 0.0052,2.43e-4 0.0078,0 -0.09094,0.04746 -0.180461,0.09527 -0.273437,0.138672 -0.09075,0.04236 0.165921,-0.129265 0.265625,-0.138672 z m 1.230469,7.226562 c -0.293632,0.44057 -0.476694,0.691204 -0.626953,0.902344 0.0068,-0.01519 0.01468,-0.02971 0.02148,-0.04492 0.201827,-0.285562 0.799396,-1.148413 0.605469,-0.857422 z m -46.095703,1.306641 c 0.121568,0.42801 0.01118,-0.0254 0.01953,0.677734 -0.0011,0.0024 -0.0068,0.0074 -0.0078,0.0098 -0.0041,-0.01262 -0.0076,-0.02441 -0.0098,-0.03711 -0.02937,-0.175555 -0.0068,-0.504648 -0.002,-0.65039 z m 0.576172,2.701172 c 0.02608,-0.01247 -0.01448,0.05978 -0.03516,0.08008 -0.06632,0.06501 -0.145993,0.114741 -0.220703,0.169922 -0.02846,0.02117 -0.05684,0.04228 -0.08594,0.0625 -0.0033,-0.03439 -0.0088,-0.0726 -0.01367,-0.109375 0.115933,-0.07204 0.232702,-0.1439 0.355469,-0.203125 z m -6.939454,0.78125 c 0.766687,0.0042 1.532883,0.04149 2.298828,0.08008 -0.6502,0.01739 -1.299828,0.02458 -1.949218,0.05273 -0.116489,-0.04467 -0.474373,-0.133493 -0.34961,-0.132812 z M 71.847656,39.375 c 0.01247,0.0016 0.03951,0.02267 0.113282,0.07422 -0.0019,0.02872 0.0067,0.05918 -0.0039,0.08594 -0.245858,0.618735 -4.968797,1.814048 -4.773437,1.0625 0.905011,-0.05836 1.555804,-0.593084 2.537109,-0.669922 -0.348132,-8.5e-4 -1.091788,0.0027 -1.798828,0.0039 0.03137,-0.02079 0.06195,-0.04096 0.0957,-0.0625 1.090893,-0.06837 2.181452,-0.13586 3.267578,-0.25586 0.621956,-0.06871 0.525125,-0.243081 0.5625,-0.238281 z m -2.126953,0.552734 c 0.471005,0.0011 0.592992,0.002 0.03516,-0.0039 -0.01209,8.05e-4 -0.02306,0.0031 -0.03516,0.0039 z M 55.646484,39.810547 c 0.02873,0.0064 0.08633,0.03326 0.205078,0.06641 -0.09441,-0.0028 -0.18879,-0.0048 -0.283203,-0.0078 0.04176,-0.05102 0.04789,-0.0654 0.07813,-0.05859 z m 8.951172,0.240234 c 0.02721,0.0018 0.05355,0.0092 0.08008,0.01563 -0.148195,0.0017 -0.270389,0.0023 -0.392578,0.0039 0.105449,-0.01209 0.20981,-0.02633 0.3125,-0.01953 z m -0.685547,0.0078 c 0.03439,0.0102 0.06871,0.01185 0.103516,0.01563 -0.676441,0.0102 -0.809063,0.01461 -0.103516,-0.01563 z m -25.101562,6.433594 c 0.03137,-8.47e-4 0.07193,0.0044 0.107422,0.0078 -0.06002,0.01625 -0.121143,0.02984 -0.179688,0.05078 -0.27806,0.0991 -0.535573,0.250901 -0.814453,0.347657 -0.02079,0.0072 0.03177,-0.0325 0.04687,-0.04883 0.514235,-0.270992 0.657818,-0.352471 0.839844,-0.357421 z m 5.03125,0.283203 c -0.160517,0.03704 -0.321032,0.07337 -0.482422,0.107421 -0.06104,0.01285 -0.223708,0.04517 -0.1875,-0.0059 0.02759,-0.0384 0.07298,-0.0598 0.109375,-0.08984 0.186822,-0.0034 0.373759,-0.0079 0.560547,-0.01172 z m 6.638672,0.06055 c 0.0042,-1.14e-4 0.0076,1.16e-4 0.01172,0 -0.04021,0.02117 -0.07369,0.03711 -0.08594,0.03711 -0.09403,0.0019 -0.188009,-0.01324 -0.28125,-0.03516 0.122117,5.85e-4 0.246429,0.001 0.355469,-0.002 z m 1.945312,0.04687 c -0.01826,0.006 -0.0365,0.01161 -0.05469,0.01758 0.01112,2.83e-4 0.023,9.26e-4 0.0332,-0.002 0.0083,-0.0023 0.0298,-0.01839 0.02148,-0.01563 z m -0.08398,0.02734 c -0.0034,0.0011 -0.0064,0.0028 -0.0098,0.0039 0.0065,0.0039 0.01302,0.0078 0.01953,0.01172 0.0075,-0.0035 0.01561,-0.0064 0.02344,-0.0098 -0.01281,-0.0016 -0.03082,-0.0019 -0.0332,-0.0059 z m 30.398437,0.875 c 0.01247,-0.01625 -0.0038,0.02153 -0.05664,0.128906 -0.239055,0.486584 -0.496442,0.964158 -0.753906,1.441407 -0.0034,-0.01361 -0.0099,-0.0306 -0.01367,-0.04492 0.368428,-0.706307 0.778637,-1.465614 0.824218,-1.525391 z m -3.65625,0.822266 c -0.252661,0.0257 -0.527346,0.05337 -0.769531,0.06641 -0.0076,0.01625 -0.0093,0.01582 -0.01758,0.0332 0.589005,0.513411 -0.255383,0.706742 0.722656,0.263672 0.02154,-0.121134 0.0423,-0.242298 0.06445,-0.363281 z m -0.779296,0.06836 c -0.01323,6.96e-4 -0.02798,0.0014 -0.04102,0.002 0.0098,0.0079 0.01827,0.0155 0.02734,0.02344 0.0042,-0.0087 0.0095,-0.0167 0.01367,-0.02539 z M 7.6035156,48.955078 c 0.07739,0.196611 0.1688164,0.426652 0.3398438,0.886719 0.087674,0.235842 -0.2066517,-0.460175 -0.2851563,-0.699219 -0.020296,-0.06183 -0.036017,-0.125138 -0.054687,-0.1875 z m 74.2695314,0.439453 c 0.0053,0.01172 0.01032,0.02344 0.01563,0.03516 -0.182249,0.338077 -0.362005,0.676833 -0.535156,1.019531 0.02721,-0.09906 0.263132,-0.561255 0.519531,-1.054688 z m -3.365235,4.210938 c -0.11021,0.139427 -0.218359,0.274318 -0.353515,0.480469 0.096,-0.02003 0.195647,-0.02834 0.298828,-0.04883 0.01209,-0.147326 0.02834,-0.292879 0.05469,-0.43164 z m 1.335938,2.017578 c -0.01096,0.03666 -0.0196,0.07362 -0.0332,0.109375 l -0.002,0.002 c 4.72e-4,-0.0076 0.0056,-0.03741 0.0098,-0.04883 0.0076,-0.02116 0.0167,-0.04186 0.02539,-0.0625 z m -42.960938,3.738281 c 0.208045,0.0121 0.429297,0.049 0.978516,0.136719 -0.485448,-0.02532 -0.635501,-0.02799 -1.023437,-0.04687 0.01531,-0.02986 0.03114,-0.06052 0.04492,-0.08984 z m -3.966796,0.179688 c 0.07719,0.158022 0.163203,0.205735 0.5625,0.347656 0.204347,0.07264 0.853219,0.11414 0.636718,0.126953 -7.860886,0.464629 -3.216152,0.07369 -2.482422,-0.07031 0.190787,-0.03742 0.3762,-0.09593 0.564454,-0.144531 0.252147,-0.04913 0.479295,-0.173139 0.71875,-0.259765 z m 2.939453,1.451172 c 0.0078,0.05409 -0.0063,0.199388 0.02148,0.166015 -0.03746,0.07604 -0.06817,0.139876 -0.06641,0.115235 0.0068,-0.09506 0.02994,-0.187141 0.04492,-0.28125 z m -2.761719,4.324218 c 0.0074,2.57e-4 0.09937,0.04871 0.189453,0.09766 v 0.002 c -0.0061,0.0257 -0.209621,-0.10029 -0.189453,-0.09961 z m -1.503906,0.208985 c 0.483564,0.0072 0.967335,0.0043 1.451172,0.0039 0.01875,0.01058 0.03995,0.02105 0.05469,0.03125 -0.380781,-0.0072 -0.761973,-0.01493 -1.142578,-0.0293 -0.120843,-0.0019 -0.48413,-0.0074 -0.363281,-0.0059 z m 1.667968,0.0059 c 0.07618,1.02e-4 0.152344,-3.06e-4 0.228516,0 0.0189,0.01058 0.04322,0.02501 0.06445,0.03711 -0.07552,-0.0011 -0.151047,-0.0028 -0.226562,-0.0039 -0.02219,-0.01058 -0.04445,-0.02186 -0.06641,-0.0332 z m 0.839844,0.0078 c 0.352713,0.006 0.706424,0.01512 1.058594,0.03516 0.0012,0.0045 0.0028,0.0091 0.0039,0.01367 v 0.002 c -0.3144,-0.0045 -0.628924,-0.0079 -0.943359,-0.01172 -0.04284,-0.0155 -0.07947,-0.02572 -0.119141,-0.03906 z m 7.734375,0.525391 c 0.03919,0.0038 0.07346,0.02418 0.111328,0.0625 0.696889,0.03364 0.524801,0.07174 0.05664,0.06641 0.05046,0.06713 0.110374,0.161707 0.197266,0.298829 -0.185424,-0.07132 -0.355465,-0.209527 -0.546875,-0.279297 -0.03882,-0.01399 -0.07904,-0.02987 -0.119141,-0.04102 0.170494,0.01209 0.325154,0.01997 0.46875,0.02148 -0.02003,-0.02646 -0.03922,-0.04887 -0.05664,-0.06641 -0.09146,-0.0045 -0.191757,-0.0095 -0.316406,-0.01367 -0.0429,0.01512 -0.09932,0.02948 -0.158203,0.04883 0.01739,0.003 0.03554,0.0032 0.05273,0.0078 -0.02268,-0.0016 -0.04369,-0.0022 -0.06641,-0.0039 0.0042,-0.0014 0.0095,-0.0027 0.01367,-0.0039 -0.02003,-0.0034 -0.04021,-0.009 -0.06055,-0.0098 -0.03904,-0.0012 -0.07811,-5.46e-4 -0.117187,-0.002 -0.120038,-0.01285 -0.232392,-0.0306 -0.339844,-0.05078 0.257764,0.0045 0.495335,0.008 0.675781,0.01367 0.08629,-0.02986 0.155037,-0.0537 0.205078,-0.04883 z m 3.554688,0.03711 c 0.305008,-8.94e-4 0.654961,0.0068 1.029297,0.02344 -0.520196,0.144983 -1.052557,0.311602 -1.574219,0.09375 -0.06342,-0.02646 -0.118283,-0.06901 -0.177735,-0.103516 0.2112,-0.0079 0.451748,-0.01292 0.722657,-0.01367 z m 1.095703,0.02734 c 0.272353,0.01285 0.550332,0.02872 0.855469,0.05469 0.05439,0.0045 -0.0047,0.109007 -0.01758,0.162109 -0.0072,0.02948 -0.0091,0.08061 -0.03906,0.08008 -0.09876,-0.0018 -0.653264,-0.239618 -0.673828,-0.248047 -0.0474,-0.01965 -0.07999,-0.03061 -0.125,-0.04883 z m -10.625,0.138672 c 0.04202,0.04142 0.05586,0.05016 0.162109,0.15625 -0.05811,-0.02759 -0.115718,-0.05628 -0.173828,-0.08398 0.0036,-0.02419 0.0081,-0.0483 0.01172,-0.07227 z m 29.714844,0.230469 c 1.030235,-0.01776 0.595823,0.193145 -0.423828,0.125 -0.290041,0.0028 -0.758719,0.0031 -1.042969,0.03125 -0.171402,0.01701 -0.372588,-0.02608 -0.509766,0.07813 -0.154809,0.117505 0.484751,0.788442 0.546875,0.855469 -0.35811,-0.163087 -0.516701,-0.231296 -0.617187,-0.273438 0.101329,0.03783 0.189924,0.05942 -0.07227,-0.115234 -0.122872,-0.08186 -0.254668,-0.149258 -0.382813,-0.222657 0.0325,-0.0867 0.06747,-0.173365 0.101563,-0.259765 1.135771,-0.146873 1.937232,-0.210813 2.400391,-0.21875 z m -2.625,0.25 c -0.02797,0.03836 -0.05571,0.07706 -0.08398,0.115234 -0.08542,-0.0257 -0.149525,-0.04692 -0.240234,-0.07031 0.110589,-0.0155 0.219677,-0.03101 0.324219,-0.04492 z m -0.681641,0.09375 c 0.02608,0.05813 0.04922,0.118005 0.06445,0.179687 0.01965,0.07895 0.03173,0.161861 0.04492,0.244141 -0.02343,0.0223 -0.04722,0.05065 -0.07031,0.06641 -0.451764,0.11297 -0.701474,0.589377 -1.142579,0.710938 -0.03175,0.0087 -0.06523,-0.0096 -0.09766,-0.01563 -0.04879,-0.0094 -0.141696,0.01864 -0.144531,-0.03125 -0.0049,-0.08651 0.08732,-0.151653 0.130859,-0.226563 0.171288,-0.291326 0.0387,-0.09891 0.462891,-0.486328 0.144151,-0.131641 0.238678,-0.366917 0.43164,-0.396484 0.122079,-0.0189 0.204357,-0.02799 0.320313,-0.04492 z M 4.0878906,77.759766 c 0.017348,-0.0034 0.043261,3.4e-5 0.082031,0.01172 -0.033562,0.07597 -0.047134,0.108633 -0.076172,0.173828 -0.018935,-0.08198 -0.06658,-0.173527 -0.00586,-0.185546 z m 29.0156254,0.976562 c 0.0909,-9.94e-4 0.336668,-0.0059 0.396484,0.0059 0.179112,0.03364 0.349732,0.107641 0.529297,0.138671 0.01591,0.0028 -0.01873,-0.05537 -0.0039,-0.04883 0.07292,0.03213 0.140137,0.07721 0.207031,0.121094 -0.363791,-0.006 -0.728066,-0.01159 -1.091797,-0.01953 -0.0082,-0.03326 -0.01159,-0.06828 -0.02539,-0.09961 -0.01357,-0.03099 -0.05074,-0.05053 -0.05469,-0.08398 -0.0018,-0.0155 0.02812,-0.0091 0.04297,-0.01367 z m 22.113281,0.07031 c 0.02797,0.0042 0.05436,0.01178 0.08203,0.01367 0.05,0.02117 0.100425,0.04137 0.150391,0.0625 -0.103484,-2.44e-4 -0.231893,0.0019 -0.298828,0 -0.03439,-0.03099 -0.05791,-0.06269 -0.01758,-0.07422 0.02683,-0.0076 0.05602,-0.006 0.08398,-0.002 z m 21.474609,0.921875 c 0.266155,2.76e-4 0.408919,0.0056 0.613282,0.0098 -0.609495,0.03628 -1.226121,0.07965 -1.873047,0.125 -0.157871,0.01096 -0.52012,0.221307 -0.712891,0.148438 0.006,-0.05771 0.06974,-0.08098 0.08984,-0.128907 0.01361,-0.03288 -0.02148,-0.10155 0.01367,-0.103515 0.715011,-0.03995 1.347841,-0.05131 1.86914,-0.05078 z m -7.216797,0.05469 c 0.0771,0.125632 0.148541,0.242129 0.16211,0.263672 -0.361059,0.02759 -0.703644,-0.121697 -1.048828,-0.242187 0.2609,-0.0042 0.535419,-0.01053 0.886718,-0.02148 z m -36.060547,0.285156 c 0.194264,0.003 1.076187,0.03137 1.566407,0.04883 -0.52296,0.126273 -0.549124,0.263628 -1.117188,0.101562 -0.649058,-0.121512 -0.867059,-0.156928 -0.449219,-0.150391 z m -12.492187,0.002 c 0.09263,4.16e-4 0.178421,0.0025 0.255859,0.0098 0.02971,0.0027 0.05658,0.01336 0.08203,0.02734 -0.243988,-0.01058 -0.480656,-0.02016 -0.69336,-0.02734 0.124842,-0.0068 0.246837,-0.0101 0.355469,-0.0098 z m 14.701172,0.06641 c 0.461896,0.0155 0.506768,0.01972 1.160156,0.03711 0.0922,0.0024 -0.1773,0.05145 -0.267578,0.07031 -0.08349,0.01739 -0.170216,0.02232 -0.253906,0.03906 -0.07825,0.0155 -0.152735,0.05775 -0.232422,0.05469 -0.09873,-0.0038 -0.191504,-0.04927 -0.287109,-0.07422 0.03466,-9.19e-4 0.131181,0.01937 0.103515,-0.002 -0.06942,-0.05239 -0.144084,-0.09197 -0.222656,-0.125 z m -11.125,0.08789 c 0.113231,0.0017 0.226624,0.0019 0.339844,0.0039 -0.08344,0.0091 -0.167644,0.03919 -0.25,0.02539 -0.03084,-0.0053 -0.06103,-0.01645 -0.08984,-0.0293 z m 55.164062,0.03125 c 0.0058,0.01874 0.0133,0.03791 0.01953,0.05664 -0.247446,0.150047 -0.138562,0.163859 -0.283203,0.154297 0.117569,-0.08229 0.198441,-0.149684 0.263671,-0.210938 z m -58.417968,0.113282 c 0.155232,0.01134 0.310189,0.02363 0.457031,0.0293 -0.0102,0.0666 -0.02766,0.123007 -0.05469,0.117187 -0.122611,-0.02646 -0.236766,-0.08107 -0.353515,-0.126953 -0.01629,-0.0064 -0.03254,-0.01311 -0.04883,-0.01953 z m 21.789062,0.107421 c -0.0049,-0.006 0.296582,-5.15e-4 0.732422,0.0059 -0.08991,0.0091 -0.180171,0.01972 -0.271484,0.03711 -0.308107,-0.0257 -0.457037,-0.03824 -0.460938,-0.04297 z m 2.935547,0.0039 c -0.09456,0.01285 -0.189131,0.02796 -0.283203,0.04297 -0.07094,0.01209 -0.140966,0.04028 -0.212891,0.03711 -0.100271,-0.0042 -0.196667,-0.04156 -0.292968,-0.07422 0.241548,-5.78e-4 0.509388,-0.0027 0.789062,-0.0059 z m -1.744141,0.0059 c 0.260523,0.0023 0.539419,5.86e-4 0.884766,0 -0.223446,0.0257 -0.445887,0.04302 -0.667969,0.0293 -0.0726,-0.0045 -0.144834,-0.01834 -0.216797,-0.0293 z m 49.632813,6.28125 c -0.105296,0.36348 -0.264055,0.765526 -0.425781,1.144531 -0.215433,0.169626 -0.470182,0.344092 -0.802735,0.523438 -0.498569,0.268875 -1.015208,0.500682 -1.542968,0.710937 0.447536,-0.231722 0.814017,-0.631071 1.107421,-1.136718 0.387232,-0.05579 0.774992,-0.109474 1.16211,-0.166016 0.342708,-0.746391 0.369809,-0.797923 0.501953,-1.076172 z m -5.798828,1.837891 c 1.084169,0.731081 1.971824,0.896224 2.685547,0.679687 -1.827776,0.680992 -3.790887,1.050779 -5.722657,1.25586 -0.714028,0.07578 -1.242286,-0.722798 -1.853515,-1.09961 -0.03628,-0.0223 -0.126056,-0.08913 -0.08398,-0.0957 1.656545,-0.259464 3.314857,-0.501999 4.97461,-0.740234 z m -20.111328,3.888672 c -0.458843,0.252699 -0.597189,0.325313 -0.81836,0.318359 0.275717,-0.10046 0.546033,-0.220923 0.81836,-0.318359 z m 11.830078,0.04102 c 0.01739,-0.0013 0.02942,2.72e-4 0.02148,0.0098 -0.03742,0.04309 -0.09155,0.08036 -0.148437,0.08398 -0.160593,0.0102 -0.219596,0.01789 -0.361329,0.02734 0.06482,-0.01701 0.128541,-0.034 0.19336,-0.05078 0.08077,-0.02041 0.160285,-0.04697 0.242187,-0.0625 0.0121,-0.0023 0.03516,-0.0063 0.05273,-0.0078 z m -67.601563,0.173828 c 0.522009,0.215282 1.443126,0.251898 2.251953,0.22461 -0.406256,-0.02872 -0.877244,-0.06484 -1.458984,-0.117188 -0.170328,-0.0155 -0.334727,-0.05875 -0.5,-0.105468 -0.09769,6.83e-4 -0.19531,-0.0017 -0.292969,-0.002 z m 63.320313,0.03906 c 0.04811,-0.0064 0.09488,0.006 0.142578,0.0098 0.07491,0.02948 -0.06028,-0.02156 0.228516,0.05078 0.0053,0.003 0.01072,0.0044 0.01562,0.0078 -0.225939,0.0049 -0.45176,0.0079 -0.677734,0.01172 0.09479,-0.03477 0.191614,-0.06659 0.291016,-0.08008 z m -3.701172,0.103515 c -0.17212,0.08058 -0.356033,0.160271 -0.578125,0.232422 0.286526,-0.01209 0.586525,-0.02684 0.914062,-0.05273 0.08704,-0.0068 -0.157499,-0.07772 -0.234375,-0.119141 -0.03987,-0.02154 -0.06917,-0.03972 -0.101562,-0.06055 z m -0.578125,0.232422 c -2.260324,0.09464 -3.198193,-0.183529 -1.943359,0.15625 0.446731,0.03591 0.884022,0.06123 1.330078,-0.0078 0.239848,-0.03704 0.436074,-0.09087 0.613281,-0.148438 z m -9.564453,-0.228515 c -0.04698,0.0189 -0.130228,0.04382 -0.189453,0.06445 0.115124,-0.0038 0.192653,-0.004 0.324218,-0.0078 -0.04622,-0.02003 -0.08926,-0.03627 -0.134765,-0.05664 z m 1.421875,0.0078 c 0.08625,-0.0053 0.171752,0.01865 0.257812,0.02734 -0.226545,4.72e-4 -0.452406,0.0016 -0.654297,0.0039 0.07336,-0.0087 0.194193,-0.0184 0.396485,-0.03125 z m -46.476563,0.138672 c -0.07664,0.0014 -0.169525,0.005 -0.294922,0.0078 0.0102,0.0076 0.01903,0.01802 0.0332,0.01953 0.202351,0.01965 0.404522,0.03024 0.607421,0.04102 -0.0083,-0.0018 -0.0809,-0.03362 -0.148437,-0.0625 -0.06023,-0.0064 -0.120626,-0.0073 -0.197266,-0.0059 z m 0.259766,0.01367 c 0.0463,0.02608 0.08429,0.04887 0.0918,0.05469 0.05936,0.0031 0.118331,0.0091 0.177734,0.01172 -0.07432,-0.01814 -0.22059,-0.0582 -0.269531,-0.06641 z m 0.269531,0.06641 c 0.134045,0.03288 0.231704,0.05422 0.529297,0.134766 0.01761,0.0034 0.03512,0.0064 0.05273,0.0098 0.0055,-0.02268 0.01753,-0.05307 0.01367,-0.07227 -0.0036,-0.01739 -0.02487,-0.03873 -0.03906,-0.05664 -0.185488,-0.0036 -0.371426,-0.0077 -0.556641,-0.01563 z m 0.556641,0.01563 c 0.03122,6.01e-4 0.06252,0.0014 0.09375,0.002 -0.0333,-0.02419 -0.06774,-0.06104 -0.09961,-0.04297 -0.01489,0.0083 -0.0073,0.0242 0.0059,0.04102 z m 0.09375,0.002 c 0.0064,0.0045 0.01322,0.01065 0.01953,0.01367 0.259404,0.08103 0.530331,0.138051 0.806641,0.183594 -0.22455,-0.01058 -0.493556,-0.02483 -0.666016,-0.03125 0.231655,0.03742 0.462586,0.05628 0.697266,0.03516 0.489652,0.07854 0.998503,0.11109 1.509765,0.119141 0.05169,0.0064 0.07152,0.0084 0.107422,0.01367 0.219439,0.0155 0.432541,0.02488 0.648438,-0.01367 0.05078,-8.17e-4 0.09981,-0.003 0.15039,-0.0039 -0.04446,-4.65e-4 -0.08373,-0.0015 -0.126953,-0.002 0.01678,-0.0033 0.03394,-0.0056 0.05078,-0.0098 0.0348,-0.0079 0.06803,-0.02039 0.101563,-0.0332 -0.472233,0.02138 -1.512499,-0.02924 -2.421875,-0.07227 0.05921,-0.006 0.118037,-0.0094 0.177734,-0.02148 0.130099,-0.02646 0.249616,-0.09292 0.378907,-0.123047 0.110996,-0.0257 0.325809,-0.02785 0.449218,-0.03125 -0.626893,-0.01776 -1.255461,-0.01323 -1.882812,-0.02344 z m 3.298828,0.271485 c 0.0015,-7e-5 0.0043,7.1e-5 0.0059,0 v -0.002 c -0.0019,7.43e-4 -0.0039,0.0012 -0.0059,0.002 z m 0.0059,0 c 0.126735,-0.006 0.216097,-0.01512 0.21875,-0.03516 -0.03201,-0.0042 -0.06403,-0.0068 -0.0957,-0.002 -0.04266,0.0064 -0.08248,0.02161 -0.123047,0.03711 z m -0.03125,0.04492 c 1.319321,0.01361 3.015832,0.04524 2.179688,-0.0059 -0.653375,-0.03965 -1.407887,-0.0096 -2.179688,0.0059 z m -3.341797,-0.189454 c -0.0041,0.01701 -0.0048,0.03087 0.0098,0.03125 0.04882,0.0014 0.162102,0.0075 0.21875,0.0098 -0.07606,-0.01209 -0.152279,-0.02684 -0.228516,-0.04102 z m 19.640625,0.517579 c -0.0735,0.01096 -0.127695,0.01865 -0.189453,0.02734 0.101167,0.0015 0.212896,0.0025 0.308594,0.0039 -0.03967,-0.01058 -0.07976,-0.01916 -0.119141,-0.03125 z m 7.103516,0.04102 c -0.03137,0.0019 -0.06268,0.01032 -0.09375,0.01563 0.114633,-1.85e-4 0.229117,-6e-5 0.34375,0 0.08379,0 -0.166321,-0.02053 -0.25,-0.01563 z" />
  </g>
  <metadata
     id="metadata2395">
    <rdf:RDF>
      <cc:Work
         rdf:about="">
        <cc:license
           rdf:resource="http://creativecommons.org/licenses/by-sa/4.0/" />
      </cc:Work>
      <cc:License
         rdf:about="http://creativecommons.org/licenses/by-sa/4.0/">
        <cc:permits
           rdf:resource="http://creativecommons.org/ns#Reproduction" />
        <cc:permits
           rdf:resource="http://creativecommons.org/ns#Distribution" />
        <cc:requires
           rdf:resource="http://creativecommons.org/ns#Notice" />
        <cc:requires
           rdf:resource="http://creativecommons.org/ns#Attribution" />
        <cc:permits
           rdf:resource="http://creativecommons.org/ns#DerivativeWorks" />
        <cc:requires
           rdf:resource="http://creativecommons.org/ns#ShareAlike" />
      </cc:License>
    </rdf:RDF>
  </metadata>
</svg>
